<?xml version="1.0" encoding="utf-8"?>
<!-- Generator: Adobe Illustrator 25.0.0, SVG Export Plug-In . SVG Version: 6.00 Build 0)  -->
<svg version="1.1" id="Capa_1" xmlns="http://www.w3.org/2000/svg" xmlns:xlink="http://www.w3.org/1999/xlink" x="0px" y="0px"
	 viewBox="0 0 445.55 408.66" style="enable-background:new 0 0 445.55 408.66;" xml:space="preserve">
<style type="text/css">
	.st0{fill:#F7F4D2;}
	.st1{fill:#F8E701;}
	.st2{fill:#FDFBD2;}
	.st3{fill:#F8AE01;}
	.st4{fill:#E6EBEE;}
	.st5{fill:#CAD7DF;}
	.st6{fill:none;}
	.st7{fill:#98A2A8;}
	.st8{fill:#FFFFFF;}
	.st9{fill:#BBBCD0;}
	.st10{fill:url(#SVGID_1_);}
	.st11{fill:url(#SVGID_2_);}
	.st12{fill:url(#SVGID_3_);}
	.st13{fill:url(#SVGID_4_);}
	.st14{fill:url(#SVGID_5_);}
	.st15{fill:url(#SVGID_6_);}
	.st16{fill:url(#SVGID_7_);}
	.st17{fill:url(#SVGID_8_);}
	.st18{fill:url(#SVGID_9_);}
	.st19{fill:url(#SVGID_10_);}
	.st20{fill:url(#SVGID_11_);}
	.st21{fill:url(#SVGID_12_);}
	.st22{fill:url(#SVGID_13_);}
	.st23{fill:url(#SVGID_14_);}
	.st24{fill:url(#SVGID_15_);}
	.st25{fill:url(#SVGID_16_);}
	.st26{fill:url(#SVGID_17_);}
	.st27{fill:url(#SVGID_18_);}
	.st28{fill:url(#SVGID_19_);}
	.st29{fill:url(#SVGID_20_);}
	.st30{fill:url(#SVGID_21_);}
	.st31{fill:url(#SVGID_22_);}
	.st32{fill:url(#SVGID_23_);}
	.st33{fill:url(#SVGID_24_);}
	.st34{fill:url(#SVGID_25_);}
	.st35{fill:url(#SVGID_26_);}
	.st36{fill:url(#SVGID_27_);}
	.st37{fill:url(#SVGID_28_);}
	.st38{fill:url(#SVGID_29_);}
	.st39{fill:url(#SVGID_30_);}
</style>
<g>
	<g>
		<path d="M208.39,241.45c-6.34-0.05-12.4-1.43-18.02-4.1c-3.63-1.72-6.94-3.94-9.88-6.6c-1.49,0.27-3.01,0.41-4.54,0.41
			c-1,0-2.01-0.06-3-0.18c-7.62-0.91-14.41-5.29-18.34-11.77c-3.97-1.08-7.45-3.5-9.87-6.88c-2.63-3.67-3.79-8.16-3.25-12.64
			c1.05-8.8,8.34-15.49,17.09-15.86c2.6-6.18,8.3-10.23,14.6-10.23c0,0,0,0,0,0c0.58,0,1.17,0.04,1.74,0.1
			c0.24,0.03,0.47,0.06,0.71,0.1c3.11-5.44,7.55-10.04,12.94-13.38c5.96-3.69,12.82-5.66,19.85-5.69h0.08
			c7.02,0.03,13.88,2,19.85,5.69c5.38,3.33,9.83,7.94,12.94,13.38c0.24-0.04,0.47-0.07,0.71-0.1c0.58-0.07,1.16-0.1,1.74-0.1
			c6.3,0,12,4.05,14.6,10.23c8.76,0.37,16.04,7.06,17.09,15.86c0.54,4.48-0.62,8.97-3.25,12.64c-2.43,3.38-5.9,5.8-9.87,6.88
			c-3.93,6.49-10.72,10.86-18.34,11.77c-0.99,0.12-2,0.18-3,0.18c-1.53,0-3.05-0.14-4.54-0.41c-2.93,2.66-6.25,4.88-9.88,6.6
			c-5.62,2.67-11.69,4.04-18.03,4.1l-0.07,0L208.39,241.45z"/>
		<g>
			<path class="st0" d="M208.47,156.87l0.03,0c13.64,0.06,25.75,7.8,31.69,19.38c0.67-0.2,1.36-0.35,2.07-0.43
				c0.49-0.06,0.99-0.09,1.49-0.09c5.96,0,11.17,4.22,13.12,10.23c0.24-0.01,0.48-0.02,0.72-0.02c8.02,0,14.78,6.02,15.74,13.99
				c0.98,8.2-4.49,15.7-12.39,17.41c-3.47,6.27-9.85,10.63-17.2,11.51c-0.91,0.11-1.83,0.16-2.75,0.16c-1.76,0-3.5-0.2-5.19-0.59
				c-2.94,2.82-6.39,5.2-10.14,6.99c-5.34,2.53-11.1,3.84-17.13,3.89l-0.05,0l-0.05,0c-6.03-0.05-11.8-1.36-17.13-3.89
				c-3.76-1.78-7.21-4.16-10.14-6.99c-1.69,0.39-3.42,0.59-5.19,0.59c-0.91,0-1.84-0.06-2.75-0.16
				c-7.35-0.88-13.73-5.25-17.21-11.51c-7.9-1.7-13.37-9.21-12.39-17.41c0.96-7.98,7.72-13.99,15.74-13.99
				c0.24,0,0.48,0.01,0.72,0.02c1.95-6.01,7.16-10.23,13.12-10.23c0.5,0,1,0.03,1.49,0.09c0.71,0.08,1.4,0.23,2.07,0.43
				c5.94-11.58,18.05-19.32,31.69-19.38L208.47,156.87 M208.47,152.6l-0.02,0l-0.03,0c-7.42,0.03-14.67,2.11-20.97,6.01
				c-5.28,3.27-9.7,7.69-12.94,12.9c-0.44-0.04-0.89-0.05-1.33-0.05c-6.75,0-12.87,4.04-16.02,10.33c-9.2,1-16.68,8.25-17.8,17.64
				c-0.6,5.01,0.69,10.03,3.63,14.14c2.54,3.55,6.13,6.15,10.23,7.46c4.33,6.65,11.48,11.12,19.47,12.08
				c1.08,0.13,2.17,0.19,3.25,0.19c1.3,0,2.6-0.09,3.88-0.28c2.89,2.5,6.12,4.6,9.62,6.26c5.9,2.8,12.27,4.25,18.93,4.3l0.05,0
				l0.03,0l0.03,0l0.05,0c6.66-0.05,13.03-1.5,18.93-4.3c3.5-1.66,6.73-3.76,9.62-6.26c1.28,0.18,2.58,0.28,3.88,0.28
				c1.08,0,2.18-0.07,3.25-0.19c7.99-0.96,15.14-5.42,19.47-12.08c4.1-1.31,7.69-3.91,10.23-7.46c2.94-4.11,4.23-9.13,3.63-14.14
				c-1.12-9.39-8.6-16.64-17.8-17.64c-3.14-6.28-9.27-10.33-16.02-10.33c0,0,0,0,0,0c-0.44,0-0.89,0.02-1.33,0.05
				c-3.24-5.21-7.66-9.64-12.94-12.9c-6.3-3.9-13.55-5.98-20.96-6.01l-0.03,0L208.47,152.6L208.47,152.6z"/>
		</g>
	</g>
	<g>
		<g>
			<path d="M173.25,250.02h-10.14l8.35-23.06l0.03-0.08c0.97-2.47,23.81-60.85,26.58-66.51c0.74-1.51,1.99-3.45,3.73-5.82
				l-13.96,2.44l29.21-29.54l47.02,4.49l-11.02,9.88c-3.49,3.13-7.38,7.72-10.74,12.02l20.42-6.64l-27.24,32.86l-26.42,59.71
				l-0.66,0.8h23.92l-78.34,34.47L173.25,250.02z"/>
			<g>
				<path class="st0" d="M217.86,129.67l2.06,0.2l29.21,2.79l9.89,0.95l-7.4,6.63c-4.98,4.47-10.69,11.73-14.73,17.23
					c2.96-0.59,5.18-1.3,5.22-1.31l14.28-4.64l-9.58,11.56l-13.15,15.86l-26.17,59.16l-0.24,0.55l-0.39,0.47l-2.99,3.6h18.31
					l-18.95,8.34l-26.85,11.81l-15.59,6.86l10.38-13.5l6.42-8.35h-5.23h-6.21l2.11-5.84l5.17-14.28l0.02-0.05l0.02-0.05
					c0.97-2.48,23.8-60.8,26.51-66.36c1.26-2.58,4.06-6.31,6.92-9.81l-12.83,2.25l9.6-9.7l12.74-12.89L217.86,129.67 M216.25,125.22
					l-1.43,1.44l-1.45,1.47l-12.74,12.89l-9.6,9.7l-9.41,9.52l13.19-2.31l2.39-0.42c-0.41,0.69-0.76,1.32-1.05,1.9
					c-2.74,5.6-24.21,60.44-26.65,66.68l-0.02,0.05l-0.02,0.05l-0.02,0.05l-0.02,0.05l-5.17,14.28l-2.11,5.84l-2.07,5.73h6.09h2.76
					l-1.13,1.47l-10.38,13.5l-10.19,13.24l15.29-6.73l15.59-6.86l26.85-11.81l18.95-8.34l18.59-8.18h-20.31H212l25.33-57.24
					l12.77-15.4l9.58-11.56l9.4-11.34l-14.01,4.55l-6.5,2.11c1.99-2.3,4.01-4.45,5.9-6.15l7.4-6.63l7.26-6.51l-9.7-0.93l-9.89-0.95
					l-29.21-2.79l-2.06-0.2L216.25,125.22L216.25,125.22z"/>
			</g>
		</g>
		<path class="st1" d="M219.51,134.2l-12.74,12.89l11.46-2c0,0-12.1,13.32-14.32,18.13c-2.54,5.52-26.37,66.03-26.37,66.03
			l-5.17,14.28h14.07l-11.81,15.36l26.85-11.81h-6.87l8.91-10.74l26.42-59.71l13.53-16.32c0,0-8.59,2.79-15.46,2.26
			c0,0,11.38-17.18,20.73-25.56L219.51,134.2z"/>
		<g>
			<path class="st2" d="M210.54,162.84l15.34-21.12c-2.29-0.64-8.16,0.57-8.16,0.57l6.96-7.6l0,0l-5.17-0.49l-12.74,12.89l11.46-2
				c0,0-11.89,12.31-14.22,17.53c-2.48,5.55-26.47,66.63-26.47,66.63l-5.17,14.28h3.25l4.22-11.28L210.54,162.84z"/>
		</g>
		<g>
			<path class="st3" d="M218.43,166.26l-25.45,71.42l-6.69,16.07l15.17-6.68h-6.87l8.91-10.74l26.42-59.71l13.53-16.32
				c0,0-8.59,2.79-15.46,2.26c0,0,11.38-17.18,20.73-25.56l-9.39-0.9h0L218.43,166.26z"/>
		</g>
	</g>
	<g>
		<path d="M116.14,262.45c-1.67,0-3.17-0.33-4.46-0.97c-1.77-0.88-3.08-2.22-3.89-3.96c-0.75-1.61-1.02-3.42-0.81-5.38l2.85-26.89
			l2.5-0.27c4.94-0.53,9.94-1.03,14.86-1.49l3.72-0.35l-0.5,5.58c1.28-0.11,2.27-0.2,3.85-0.33l3.66-0.31l-1.3,15.91
			c0.52-0.08,1-0.16,1.54-0.25l0.57-7.82c0.11-1.56,0.59-3.03,1.42-4.35c0.82-1.32,1.95-2.41,3.36-3.24
			c1.39-0.82,3.01-1.3,4.81-1.43c0.71-0.05,1.06-0.07,1.77-0.12c0.29-0.02,0.58-0.03,0.85-0.03c1.98,0,3.68,0.49,5.07,1.44
			l0.08-1.41l2.78-0.16c2.09-0.12,3.13-0.18,5.22-0.28l1.59-0.08l0,0l0.73-0.03l1.11-0.06l0,0.01l1-0.05
			c2.08-0.1,3.12-0.14,5.2-0.22l3.49-0.14l0,0.01c2.47-0.09,4.93-0.17,7.33-0.23c0.12,0,0.23-0.01,0.35-0.01
			c1.7,0,3.22,0.35,4.52,1.03c0.21,0.11,0.41,0.22,0.6,0.35l0.03-1.51l3-0.06c2.83-0.05,5.7-0.09,8.55-0.11l0.11,0
			c1.78,0,3.38,0.37,4.74,1.11c0.32,0.17,0.62,0.36,0.91,0.56l0-1.7l3.12,0.01c2.07,0,3.11,0.01,5.18,0.03l1.21,0.01l0,0l0.89,0.01
			l0.96,0.01v0.01l1.34,0.02c2.07,0.03,3.11,0.04,5.18,0.08l3,0.06l0.03,1.49c0.18-0.12,0.37-0.22,0.57-0.33
			c1.3-0.68,2.82-1.03,4.52-1.03c0.12,0,0.24,0,0.35,0.01c1.9,0.05,3.17,0.09,4.57,0.14l0,0l1.49,0.05l4.32,0.16v0.01
			c3.31,0.13,6.42,0.28,9.46,0.43l0-0.01l1.41,0.07l1.87,0.11l1.58,0.09v0.01c3.54,0.21,7.12,0.43,10.67,0.67v-0.01l1.79,0.13
			l2.08,0.14l0,0.01c2.83,0.21,4.33,0.32,7.25,0.56c1.81,0.15,3.44,0.65,4.83,1.48c0.26,0.16,0.51,0.32,0.75,0.5
			c0.16-0.54,0.37-1.07,0.63-1.56c0.84-1.6,2.14-2.81,3.88-3.61c1.24-0.57,2.67-0.85,4.26-0.85c0.46,0,0.93,0.02,1.41,0.07
			c3.01,0.29,6.08,0.61,9.13,0.94l2.66,0.29l0.11,2.68c0.16,3.87,0.32,7.81,0.49,11.83l0.15,3.68c0.11,0.09,1.4,1.07,1.4,1.07
			l0.8,7.51c0.21,1.96-0.07,3.77-0.83,5.38c-0.82,1.72-2.11,3.05-3.86,3.93c-1.28,0.65-2.78,0.97-4.44,0.97
			c-0.48,0-0.98-0.03-1.49-0.08c-2.17-0.23-4.45-0.47-6.81-0.7l0.02,0.07l-4.72-0.44c-2.24-0.21-3.36-0.31-5.6-0.51l-2.06-0.18
			l-0.02-0.06l-1.57-0.13c-2.16-0.18-3.24-0.27-5.39-0.43l-2.69-0.21l0-0.02c-3.08-0.23-4.69-0.34-7.88-0.54
			c-2.12-0.13-3.19-0.19-5.33-0.31l-2.79-0.15l0-0.01l-2.95-0.15c-2.14-0.11-3.2-0.16-5.34-0.26l-2.85-0.13l-0.2-4.81
			c-0.75,1.41-1.86,2.54-3.28,3.35c-1.33,0.76-2.9,1.14-4.66,1.14c-0.13,0-0.26,0-0.39-0.01c-2.82-0.09-4.32-0.13-6.93-0.19
			l-1.15-0.01l-1.9-0.04c-2.91-0.06-5.84-0.1-8.72-0.13c-1.89-0.02-3.58-0.46-5.01-1.3c-1.09-0.64-1.99-1.46-2.7-2.44
			c-0.71,0.98-1.62,1.8-2.71,2.44c-1.43,0.85-3.11,1.28-5,1.3c-2.87,0.02-5.81,0.06-8.72,0.12l-3.23,0.06l0.03-1.56
			c-0.16,0.11-0.32,0.22-0.49,0.32c-1.43,0.87-3.11,1.33-4.99,1.39c-2.82,0.08-5.66,0.18-8.44,0.29l-1.27,0.05l-1.35,0.06
			c-2.9,0.12-5.85,0.26-8.76,0.42c-0.22,0.01-0.44,0.02-0.65,0.02c-1.67,0-3.16-0.35-4.43-1.05c-0.95-0.52-1.75-1.18-2.4-1.97
			c-0.77,1.12-1.76,2.07-2.96,2.83c-1.43,0.91-3.11,1.43-4.99,1.57c-0.72,0.05-1.09,0.08-1.81,0.13c-0.3,0.02-0.6,0.03-0.89,0.03
			c-1.22,0-2.34-0.19-3.35-0.58l-0.01,0.42l-2.82,0.23c-4.17,0.34-8.42,0.72-12.66,1.12l-1.12,0.11l-1.22,0.12
			c-2.92,0.29-4.35,0.43-7.27,0.75C117.12,262.42,116.62,262.45,116.14,262.45z M119.99,250.22c0.1-0.01,0.19-0.02,0.3-0.03
			c0.32-0.03,0.69-0.08,1.07-0.13l0.09-0.01c1.27-0.13,1.94-0.19,3.12-0.31l1.29-14.79c-1.45,0.04-2.91,0.08-4.37,0.12
			L119.99,250.22z M265.71,240.51c1.34,0.09,2.54,0.17,4.16,0.29l-0.21-2.94c-1.7-0.22-2.92-0.38-4.14-0.53L265.71,240.51z"/>
		<g>
			<path class="st0" d="M234.16,248.3c0.13,0.01,0.25,0.01,0.36,0.02c0.1,0,0.2,0,0.28,0c0.08,0,0.15,0,0.22,0
				c0.01-0.17,0.02-0.4,0.02-0.7c-0.36-0.28-0.73-0.56-1.09-0.84C234.03,247.3,234.09,247.78,234.16,248.3z"/>
			<path class="st0" d="M227.23,243.03l0.64,0.06c0.53,0.05,0.98,0.1,1.4,0.14c-0.69-0.52-1.38-1.04-2.07-1.55L227.23,243.03z"/>
			<path class="st0" d="M201.1,234.44c-0.21-0.03-0.56-0.06-1.1-0.07l-0.02,1.58c0.37-0.3,0.76-0.6,1.15-0.92l0-0.18
				C201.12,234.68,201.11,234.54,201.1,234.44z"/>
			<path class="st0" d="M234.48,234.73c-0.11,0-0.21,0.01-0.3,0.02c0,0.04,0,0.08-0.01,0.13l0,0.04c0,0.13-0.01,0.29-0.01,0.47v0.57
				c0.12,0.09,0.24,0.17,0.36,0.26L234.48,234.73z"/>
			<path class="st0" d="M208.43,239.82c0.07,0.06,0.13,0.12,0.19,0.18l0-0.36C208.56,239.7,208.5,239.76,208.43,239.82z"/>
			<path class="st0" d="M199.84,247.95c0.44-0.01,0.82-0.04,1.14-0.07c0.01-0.05,0.01-0.1,0.02-0.17c0.04-0.51,0.07-1.21,0.08-2.08
				c-0.43,0.32-0.84,0.61-1.22,0.88L199.84,247.95z"/>
			<path class="st0" d="M120.33,233.82l-1.63,16.43c-0.06,0.64-0.05,1.04-0.03,1.29c0.1,0.01,0.23,0.01,0.38,0.01
				c0.32,0,0.76-0.02,1.37-0.08c0.34-0.04,0.72-0.08,1.12-0.14l0.06-0.01c1.33-0.14,2-0.2,3.33-0.33l0.82-0.08l1.51-17.28
				l-0.22,0.01C124.83,233.69,122.58,233.75,120.33,233.82z"/>
			<path class="st0" d="M149.01,236.06c-0.01,0.05-0.03,0.12-0.04,0.21c-0.09,0.56-0.17,1.38-0.24,2.43l-0.63,9.38
				c-0.07,1.01-0.1,1.82-0.09,2.39c0.03,0,0.06-0.01,0.09-0.01c0.02-0.07,0.04-0.17,0.06-0.3c0.09-0.6,0.17-1.48,0.24-2.59
				l0.59-9.37c0.06-0.9,0.08-1.61,0.08-2.15C149.04,236.05,149.03,236.05,149.01,236.06z"/>
			<path class="st0" d="M183.22,234.73l-0.4,13.55c0.19-0.02,0.32-0.05,0.42-0.07c0.04-0.17,0.1-0.49,0.11-1.02l0.3-11.75
				c0.01-0.3,0-0.53-0.02-0.68C183.52,234.75,183.39,234.74,183.22,234.73z"/>
			<path class="st0" d="M289.15,244.5l0.8,0.13c1.07,0.18,1.86,0.31,2.66,0.45c-1.22-0.95-2.44-1.89-3.66-2.83L289.15,244.5z"/>
			<path class="st0" d="M297.62,234.3c-0.44-0.04-0.78-0.05-1.03-0.05c-0.06,0-0.11,0-0.16,0c0,0.07,0,0.16,0,0.25l0,0.1
				c0.01,0.15,0.01,0.33,0.03,0.53l0.06,0.83c0,0.05,0.01,0.11,0.01,0.16c0.46,0.35,0.92,0.69,1.38,1.04L297.62,234.3z"/>
			<path class="st0" d="M287.26,247.73c0.3,0.9,0.61,1.81,0.91,2.73l-0.29-3.27C287.68,247.37,287.48,247.55,287.26,247.73z"/>
			<path class="st0" d="M297.03,248.52c0.21,1.04,0.39,1.91,0.61,2.99c0.08,0.01,0.17,0.02,0.25,0.03c0.29,0.04,0.56,0.08,0.81,0.11
				c0.32,0.03,0.59,0.05,0.8,0.06c0.01-0.28,0-0.69-0.05-1.29C298.65,249.78,297.84,249.15,297.03,248.52z"/>
			<path class="st0" d="M311.92,252.01l-0.74-6.97l-0.12-1.09l-0.87-0.67l-0.49-0.37l-0.03-0.8l-0.1-2.28
				c-0.17-4.01-0.33-7.99-0.49-11.82l-0.06-1.57l-0.09-2.21l-2.2-0.24l-1.57-0.17c-3.06-0.33-6.13-0.65-9.15-0.94
				c-0.52-0.05-1.04-0.08-1.54-0.08c-1.77,0-3.39,0.33-4.79,0.97c-2,0.92-3.51,2.32-4.48,4.18c-0.04,0.08-0.09,0.17-0.13,0.26
				c-1.44-0.76-3.06-1.21-4.84-1.36c-2.52-0.2-3.98-0.32-6.15-0.48l0-0.01l-2.24-0.16l-0.97-0.07l-0.4-0.03l-2.94-0.21l0,0.02
				c-2.68-0.18-5.38-0.34-8.06-0.5l0-0.01l-2.27-0.12l-0.37-0.02l-1.86-0.11l-2.88-0.16l0,0.02c-2.17-0.11-4.38-0.21-6.69-0.3
				l0-0.01l-2.56-0.1l-1.41-0.05l-1.67-0.06l-2.76-0.11l0,0.01c-0.96-0.03-1.98-0.06-3.31-0.1c-0.13,0-0.26-0.01-0.39-0.01
				c-1.39,0-2.67,0.21-3.84,0.62l-0.01-0.74l-2.47-0.05l-1.76-0.03c-2.09-0.04-3.1-0.06-5.19-0.08l-0.09,0l0-0.01l-2.22-0.02
				l-2.2-0.03l0,0.01c-2.03-0.02-3.05-0.02-5.09-0.02l-1.84,0l-2.57,0l0,0.84c-1.31-0.53-2.77-0.8-4.36-0.8l-0.12,0
				c-2.85,0.02-5.73,0.06-8.56,0.11l-1.76,0.03l-2.47,0.05l-0.01,0.74c-1.18-0.42-2.48-0.63-3.87-0.63c-0.13,0-0.25,0-0.38,0.01
				c-2.01,0.06-4.06,0.12-6.11,0.19l0-0.01l-2.75,0.11l-0.91,0.04l-0.21,0.01l-2.47,0.09v0.01c-1.06,0.04-1.93,0.08-3.19,0.14
				l0-0.01l-2.51,0.13l-1.91,0.09l0,0.01l-0.43,0.02c-2.07,0.11-3.1,0.16-5.23,0.28l-1.63,0.09l-2.29,0.13l-0.03,0.57
				c-1.17-0.45-2.48-0.67-3.9-0.67c-0.31,0-0.62,0.01-0.94,0.03c-0.71,0.05-1.06,0.07-1.77,0.12c-2,0.14-3.81,0.68-5.37,1.6
				c-1.59,0.94-2.86,2.17-3.79,3.66c-0.04,0.06-0.07,0.11-0.1,0.17l0.11-1.37l0.25-3.02l-3.02,0.26l-2.15,0.18
				c-0.92,0.08-1.64,0.14-2.33,0.2l0.23-2.52l0.28-3.07l-3.07,0.29l-2.19,0.21c-4.91,0.46-9.91,0.96-14.87,1.49l-1.47,0.16
				l-2.06,0.22l-0.22,2.06L105.69,252c-0.23,2.2,0.08,4.23,0.93,6.05c0.94,2.01,2.45,3.55,4.48,4.56c1.47,0.73,3.16,1.11,5.03,1.11
				c0.53,0,1.08-0.03,1.64-0.09c2.92-0.31,4.35-0.46,7.26-0.75l1.22-0.12l1.11-0.11c4.22-0.4,8.47-0.78,12.64-1.12l1.66-0.13
				l2.05-0.17c0.75,0.16,1.53,0.24,2.36,0.24c0.32,0,0.65-0.01,0.98-0.04c0.72-0.05,1.09-0.08,1.81-0.13
				c2.1-0.15,3.98-0.74,5.59-1.77c0.89-0.57,1.68-1.23,2.37-1.98c0.51,0.44,1.07,0.82,1.68,1.16c1.47,0.8,3.17,1.21,5.05,1.21
				c0.23,0,0.47-0.01,0.72-0.02c2.91-0.16,5.86-0.3,8.75-0.42l1.35-0.06l1.26-0.05c2.77-0.11,5.6-0.21,8.42-0.29
				c1.49-0.04,2.87-0.32,4.13-0.83l-0.01,0.71l2.66-0.05l1.9-0.04c2.9-0.06,5.83-0.1,8.71-0.12c2.12-0.02,4.02-0.52,5.65-1.48
				c0.76-0.45,1.45-0.98,2.05-1.58c0.6,0.6,1.29,1.13,2.05,1.58c1.63,0.96,3.53,1.46,5.65,1.48c2.87,0.03,5.8,0.07,8.71,0.13
				l1.9,0.04l2.67,0.05l0-0.01c1.79,0.04,3.19,0.09,5.4,0.16c0.15,0,0.29,0.01,0.43,0.01c1.98,0,3.76-0.44,5.29-1.31
				c0.54-0.31,1.05-0.66,1.51-1.05l0.01,0.27l0.1,2.35l2.35,0.11l1.67,0.08c2.13,0.1,3.18,0.15,5.33,0.26l1.8,0.09l0,0.01l2.3,0.13
				l1.64,0.09c2.13,0.12,3.17,0.18,5.32,0.31c2.79,0.18,4.37,0.29,6.76,0.46l0,0.01l2.21,0.17l1.57,0.12
				c2.16,0.17,3.22,0.25,5.38,0.43l0.72,0.06l0.02,0.05l1.69,0.15l1.21,0.11c2.24,0.2,3.34,0.3,5.59,0.51l2.78,0.26l3.9,0.37
				l-0.02-0.06c1.66,0.17,3.27,0.34,4.84,0.5c0.56,0.06,1.1,0.09,1.63,0.09c1.87,0,3.56-0.37,5.02-1.11
				c2.01-1.01,3.5-2.53,4.44-4.52C311.84,256.25,312.16,254.21,311.92,252.01z M308.66,256.98c-0.69,1.46-1.79,2.58-3.28,3.33
				c-1.1,0.56-2.4,0.84-3.87,0.84c-0.44,0-0.89-0.02-1.36-0.07c-2.91-0.31-5.86-0.61-8.78-0.89l0.03,0.08l-2.78-0.26
				c-2.24-0.21-3.37-0.31-5.61-0.51l-1.21-0.11l-0.37-1.15c-0.01-0.02-0.01-0.03-0.01-0.05l0.09,1.12l-2.14-0.18
				c-2.16-0.18-3.24-0.27-5.4-0.43l-1.57-0.12l0-0.02l-0.79-0.06c-3.29-0.24-4.9-0.36-8.21-0.57c-2.13-0.13-3.2-0.19-5.34-0.31
				l-1.64-0.09l-0.5-9.37c-0.79-1.68-1.22-2.61-2.05-4.36l-0.2-0.42l0.66,14.03l-2.02-0.1c-2.14-0.11-3.21-0.16-5.35-0.26
				l-1.67-0.08l-0.91-22.08c-0.59,0.04-1.16,0.09-1.85,0.14c-0.03,1.24-0.07,2.48-0.1,3.73l-0.06,1.98l-1.97-0.22
				c-0.03,0-0.05-0.01-0.08-0.01c0.8,0.59,1.6,1.19,2.39,1.79l0.7,0.52l0.21,5.9c0.05,1.44-0.23,2.78-0.85,3.97
				c-0.64,1.24-1.59,2.22-2.83,2.92c-1.14,0.65-2.49,0.97-4.02,0.97c-0.12,0-0.23,0-0.35-0.01c-3.09-0.1-4.6-0.14-7.72-0.21
				l-0.38-0.01l0,0.02l-1.9-0.04c-2.91-0.06-5.85-0.1-8.74-0.13c-1.66-0.02-3.13-0.39-4.36-1.13c-1.24-0.74-2.21-1.73-2.87-2.97
				c-0.19-0.36-0.35-0.73-0.49-1.11c-0.14,0.38-0.3,0.75-0.49,1.11c-0.66,1.23-1.63,2.22-2.87,2.96c-1.23,0.73-2.7,1.11-4.36,1.12
				c-2.91,0.02-5.85,0.07-8.74,0.12l-1.9,0.04l0.06-3.37c-0.64,0.94-1.48,1.73-2.49,2.34c-1.24,0.75-2.7,1.15-4.36,1.2
				c-2.81,0.08-5.66,0.18-8.45,0.29l-1.27,0.05l-1.35,0.06c-2.89,0.12-5.85,0.26-8.78,0.42c-0.2,0.01-0.39,0.02-0.58,0.02
				c-1.45,0-2.73-0.3-3.82-0.89c-1.26-0.69-2.22-1.67-2.84-2.92c-0.09-0.18-0.17-0.36-0.24-0.55c-0.17,0.47-0.39,0.92-0.64,1.35
				c-0.71,1.22-1.7,2.24-2.94,3.02c-1.25,0.79-2.73,1.25-4.39,1.37c-0.73,0.05-1.09,0.08-1.81,0.13c-0.27,0.02-0.53,0.03-0.79,0.03
				c-1.37,0-2.59-0.28-3.63-0.83c-0.35-0.18-0.67-0.39-0.97-0.62l-0.02,1.39l-1.66,0.13c-4.19,0.34-8.45,0.72-12.68,1.12l-1.12,0.11
				l-1.22,0.12c-2.91,0.29-4.34,0.43-7.28,0.75c-0.47,0.05-0.92,0.08-1.36,0.08c-1.47,0-2.77-0.28-3.89-0.84
				c-1.51-0.75-2.62-1.88-3.3-3.35c-0.65-1.39-0.88-2.97-0.7-4.7l2.74-25.86l1.47-0.16c4.92-0.52,9.92-1.02,14.84-1.49l2.19-0.21
				l-0.5,5.58l0.1-0.01c2.11-0.19,3.17-0.28,5.27-0.46l2.15-0.18l-1.31,16.04l0.01,0c1.67-0.27,2.53-0.41,4.15-0.66l0.65-8.83
				c0.1-1.35,0.51-2.62,1.23-3.77c0.71-1.14,1.69-2.09,2.92-2.81c1.22-0.72,2.65-1.14,4.25-1.25c0.71-0.05,1.06-0.07,1.77-0.12
				c0.26-0.02,0.52-0.03,0.77-0.03c1.73,0,3.2,0.42,4.37,1.24c0.76,0.53,1.36,1.18,1.81,1.93l0.17-3.2l1.63-0.09
				c2.09-0.12,3.13-0.18,5.21-0.28l2.02-0.1l-1.01,20.58c-0.02,0.4-0.01,0.68,0.01,0.87c0.16,0.02,0.38,0.03,0.68,0.03
				c0.03,0,0.07,0,0.11,0l0.95-21.51l1.67-0.08c2.08-0.1,3.12-0.14,5.2-0.22l0.85-0.03v0l0.21-0.01l0.91-0.04l0,0l0.57-0.02
				c2.76-0.1,5.53-0.19,8.25-0.27c0.11,0,0.21,0,0.31,0c1.49,0,2.8,0.3,3.92,0.88c1,0.53,1.81,1.23,2.43,2.09l0.05-3.13l1.76-0.03
				c2.83-0.05,5.7-0.09,8.53-0.11c0.03,0,0.07,0,0.1,0c1.58,0,2.96,0.32,4.13,0.96c1.2,0.65,2.15,1.55,2.81,2.67l-0.01-3.65l1.84,0
				c2.07,0,3.1,0.01,5.17,0.02l1.8,0.01l0.16,20.29c0,0.54,0.05,0.87,0.1,1.05c0.15,0.03,0.38,0.07,0.74,0.1l-0.27-21.43l1.87,0.02
				c2.07,0.03,3.1,0.04,5.18,0.08l1.76,0.03l0.06,3.09c0.61-0.84,1.41-1.53,2.4-2.05c1.12-0.59,2.43-0.88,3.92-0.88
				c0.1,0,0.21,0,0.32,0c2.5,0.07,3.92,0.12,6.05,0.19l0,0l1.68,0.06l1.41,0.05l0,0c4.26,0.17,8.23,0.35,12.07,0.55l0-0.01
				l1.87,0.11l0.37,0.02l0,0c4.33,0.25,8.71,0.52,13.02,0.81l0.21,0.01l0,0l0.41,0.03l0.97,0.07l0,0l0.72,0.05
				c3.09,0.22,4.58,0.34,7.63,0.59c1.61,0.13,3.05,0.57,4.27,1.3c0.91,0.55,1.7,1.22,2.34,2c0-1.3,0.28-2.5,0.84-3.57
				c0.7-1.34,1.8-2.36,3.28-3.04c1.07-0.49,2.32-0.74,3.73-0.74c0.42,0,0.85,0.02,1.29,0.07c3.02,0.29,6.09,0.61,9.12,0.94
				l1.57,0.17l0.06,1.57c0.16,3.87,0.32,7.82,0.49,11.83l0.1,2.28l-2.25-0.4c-0.38-0.07-0.73-0.13-1.06-0.19
				c1.4,1.07,2.8,2.14,4.2,3.21l0.62,0.48l0.74,6.97C309.56,254.01,309.32,255.59,308.66,256.98z"/>
			<path class="st0" d="M253.3,235.39l0.27,5.69l1.99,0.11l-0.29-5.49C254.48,235.57,253.88,235.48,253.3,235.39z"/>
			<path class="st0" d="M279.96,237.69c-0.03-0.17-0.06-0.27-0.08-0.34c-0.01,0-0.03-0.01-0.04-0.01l0.36,4.73
				c0.05-0.05,0.11-0.09,0.16-0.14l-0.15-1.91C280.13,239.01,280.04,238.23,279.96,237.69z"/>
			<path class="st0" d="M264.99,250.04c1.26,0,2.3,0.01,3.46,0.02c-1.2-0.16-2.25-0.29-3.48-0.45L264.99,250.04z"/>
			<path class="st0" d="M270.03,236.61c-2.41-0.31-3.9-0.5-5.88-0.74l0.34,5.84c2.28,0.15,3.83,0.25,6.52,0.45l0.23,0.02l-0.38-5.46
				L270.03,236.61z"/>
		</g>
	</g>
	<path d="M273.33,199.94c-0.96-7.98-7.72-13.99-15.74-13.99c-0.24,0-0.48,0.01-0.72,0.02c-1.95-6.01-7.16-10.23-13.12-10.23
		c-0.49,0-1,0.03-1.49,0.09c-0.71,0.08-1.4,0.23-2.07,0.43c-5.94-11.58-18.05-19.32-31.69-19.38l-0.03,0l-0.03,0
		c-13.64,0.06-25.75,7.8-31.69,19.38c-0.67-0.2-1.36-0.35-2.07-0.43c-0.49-0.06-0.99-0.09-1.49-0.09c-5.96,0-11.17,4.22-13.12,10.23
		c-0.24-0.01-0.48-0.02-0.72-0.02c-8.02,0-14.78,6.02-15.74,13.99c-0.98,8.2,4.49,15.7,12.39,17.41
		c3.47,6.27,9.85,10.63,17.21,11.51c0.91,0.11,1.83,0.16,2.75,0.16c1.76,0,3.5-0.2,5.19-0.59c2.94,2.82,6.39,5.2,10.14,6.99
		c5.34,2.53,11.1,3.84,17.13,3.89l0.05,0l0.05,0c6.03-0.05,11.8-1.36,17.13-3.89c3.76-1.78,7.21-4.16,10.14-6.99
		c1.69,0.39,3.42,0.59,5.19,0.59c0.91,0,1.84-0.06,2.75-0.16c7.35-0.88,13.73-5.25,17.2-11.51
		C268.84,215.65,274.31,208.14,273.33,199.94z"/>
	<path class="st4" d="M267.16,200.69c-0.63-5.27-5.41-9.04-10.67-8.41c-1.86,0.22-3.54,0.97-4.89,2.07l-1.2,1.24l0.66-1.66
		c0.37-1.25,0.5-2.64,0.33-4.07c-0.57-4.8-4.31-8.3-8.33-7.82c-2.62,0.31-4.72,2.24-5.71,4.87c-2.55-13.49-14.48-23.71-28.82-23.78
		c-0.01,0-0.02,0-0.03,0c-0.01,0-0.02,0-0.03,0c-14.35,0.07-26.27,10.29-28.82,23.78c-0.99-2.63-3.09-4.55-5.71-4.87
		c-4.03-0.48-7.76,3.02-8.33,7.82c-0.17,1.43-0.04,2.82,0.33,4.07l0.66,1.66l-1.2-1.24c-1.36-1.1-3.03-1.85-4.89-2.07
		c-5.26-0.63-10.03,3.13-10.67,8.41c-0.62,5.14,3.66,9.82,8.72,10.63l-0.06-5.6c0.73,2.72,1.74,5.69,1.74,5.69
		c1.86,5.88,7.09,10.45,13.72,11.24c2.38,0.29,4.71,0.05,6.85-0.61l-2.17-7.98c0,0,1.83,4.42,4.34,7.14
		c0.12,0.14,0.24,0.29,0.36,0.43c5.8,6.88,14.89,11.34,25.13,11.42c0.01,0,0.02,0,0.03,0c0.01,0,0.02,0,0.03,0
		c10.24-0.08,19.33-4.54,25.13-11.42c0.12-0.14,0.24-0.28,0.36-0.43c2.5-2.72,4.34-7.14,4.34-7.14l-2.17,7.98
		c2.15,0.66,4.47,0.89,6.85,0.61c6.63-0.79,11.86-5.36,13.72-11.24c0,0,1.01-2.97,1.74-5.69l-0.06,5.6
		C263.5,210.51,267.78,205.83,267.16,200.69z"/>
	<g>
		<path class="st5" d="M182.98,221.2c0.12,0.14,0.24,0.29,0.36,0.43c5.8,6.88,14.89,11.34,25.13,11.42c0.01,0,0.02,0,0.03,0
			c0.01,0,0.02,0,0.03,0c10.24-0.08,19.33-4.54,25.13-11.42c0.12-0.14,0.24-0.28,0.36-0.43c2.5-2.72,4.34-7.14,4.34-7.14l-2.17,7.98
			c2.15,0.66,4.47,0.89,6.85,0.61c6.63-0.79,11.86-5.36,13.72-11.24c0,0,1.01-2.97,1.74-5.69l-0.06,5.6
			c5.06-0.81,9.33-5.49,8.72-10.63c-0.63-5.27-5.41-9.04-10.67-8.41c-1.86,0.22-3.54,0.97-4.89,2.07l-1.2,1.24l0.66-1.66
			c0.37-1.25,0.5-2.64,0.33-4.07c-0.57-4.8-4.31-8.3-8.33-7.82c-2.62,0.31-4.72,2.24-5.71,4.87c-1.7-8.98-7.56-16.51-15.52-20.56
			c13.02,6.95,8.54,30.06-13.82,30.06c-22.43,0-22.05-16.37-22.05-16.37c-3.64,4.35-4.24,9.92-4.24,9.92
			c-18.46-10.97-12.46,11.57-12.46,11.57s-12.29-11.63-9.15,2.76c3.14,14.39,20.69,17.73,20.69,17.73l-2.17-7.98
			C178.64,214.06,180.48,218.47,182.98,221.2z"/>
	</g>
	<g>
		<path class="st6" d="M178.68,214.16l-0.04-0.1C178.64,214.06,178.66,214.09,178.68,214.16z"/>
		<path class="st7" d="M229.87,172.36c0.16,0.19,0.35,0.4,0.57,0.62C230.26,172.77,230.07,172.56,229.87,172.36z"/>
		<path class="st7" d="M235.08,191.4c14.88-8.27,11.57,8.32,11.57,8.32c5.68-1.1,4.96,2.37,2.87,8.82
			c-2.09,6.45-10.07,5.22-10.07,5.22c0.61-2.41,0.31-6.58,0.31-6.58c0,9.92-14.48,23.81-31.27,23.81s-29.86-16.94-29.86-16.94
			l0.04,0.1c0.29,0.67,2.01,4.56,4.29,7.04c0.12,0.14,0.24,0.29,0.36,0.43c5.8,6.88,14.89,11.34,25.13,11.42c0.01,0,0.02,0,0.03,0
			c0.01,0,0.02,0,0.03,0c10.24-0.08,19.33-4.54,25.13-11.42c0.12-0.14,0.24-0.28,0.36-0.43c2.5-2.72,4.34-7.14,4.34-7.14l-2.17,7.98
			c2.15,0.66,4.47,0.89,6.85,0.61c6.63-0.79,11.86-5.36,13.72-11.24c0,0,1.01-2.97,1.74-5.69l-0.06,5.6
			c5.06-0.81,9.33-5.49,8.72-10.63c-0.63-5.27-5.41-9.04-10.67-8.41c-1.86,0.22-3.54,0.97-4.89,2.07l-1.2,1.24l0.66-1.66
			c0.37-1.25,0.5-2.64,0.33-4.07c-0.57-4.8-4.31-8.3-8.33-7.82c-2.62,0.31-4.72,2.24-5.71,4.87c-0.87-4.62-2.84-8.85-5.63-12.42
			C235.69,180.3,235.08,191.4,235.08,191.4z"/>
	</g>
	<ellipse class="st8" cx="207.41" cy="176.25" rx="16.65" ry="13.11"/>
	<g>
		<path d="M224.5,211.25c-2.37-1.49-3.75,0.72-3.75,0.72l1.85,0.77c0,0-1.16,1.87-1.85,2.15c-0.69,0.28-2.14,1.21-3.18,1.32
			c-1.04,0.11-4.33,0.66-9.07,0.66c-4.74,0-8.03-0.55-9.07-0.66c-1.04-0.11-2.48-1.05-3.18-1.32c-0.69-0.28-1.85-2.15-1.85-2.15
			l1.85-0.77c0,0-1.39-2.2-3.75-0.72c-2.37,1.49-2.54,5.62-2.54,5.62l2.54-2.81c0,0,0.41-0.41,0.48,0.06
			c-0.02,1.07,1.44,6.28,1.44,6.28h-1.46c2.87,4.66,7.16,5.73,9.07,6.39c1.91,0.66,6.47,0.5,6.47,0.5s4.56,0.17,6.47-0.5
			c1.91-0.66,6.2-1.73,9.07-6.39h-1.46c0,0,1.46-5.22,1.44-6.28c0.08-0.47,0.48-0.06,0.48-0.06l2.54,2.81
			C227.04,216.87,226.86,212.73,224.5,211.25z"/>
		<path class="st2" d="M215.35,221.22c2.78-0.94,3.22-2.21,3.22-2.21c-1.13,0.85-7.5,1.16-10.08,1.16s-8.95-0.3-10.08-1.16
			c0,0,0.44,1.27,3.22,2.21c0,0-2.31,0.11-4.52-0.88c0,0,0.83,4.49,4.57,4.49c3.75,0,6.8,0,6.8,0s3.05,0,6.8,0
			c3.75,0,4.57-4.49,4.57-4.49C217.67,221.33,215.35,221.22,215.35,221.22z"/>
		<path class="st9" d="M219.87,220.34c-2.2,0.99-4.52,0.88-4.52,0.88c2.78-0.94,3.22-2.21,3.22-2.21c-1.13,0.85-7.5,1.16-10.08,1.16
			c-0.23,0-0.48,0-0.76-0.01l0,0c0,0,2.48,0.67,3.6,1.26c0,0-1.4,0.9-2.83,1.25c0,0,1.28,0.21,1.28,0.88c0,0.68-1.05,1.27-1.05,1.27
			c0.77,0,3.43,0,6.57,0C219.04,224.83,219.87,220.34,219.87,220.34z"/>
	</g>
	<g>
		<path d="M179.92,194.42c-0.04-0.35,0.22-0.67,0.58-0.69c2.05-0.1,8.68-0.09,14.33,3.63c6.78,4.46,7.03,9.59,6.7,11.82
			c0,0-3.03-1.63-4.6-1.79c-1.57-0.17-5.65,0.74-8.63-0.55C185.43,205.59,180.57,199.97,179.92,194.42z"/>
		<path class="st1" d="M198.15,204.8c0.09,0.13,0,0.3-0.16,0.3h-6.06c0,0-3.05,0.06-5.07-1.91c-1.98-1.92-4.1-3.95-4.73-6.8
			c-0.03-0.13,0.06-0.26,0.2-0.25C184.02,196.27,192.91,197.3,198.15,204.8z"/>
	</g>
	<g>
		<path d="M236.11,194.42c0.04-0.35-0.22-0.67-0.58-0.69c-2.05-0.1-8.68-0.09-14.33,3.63c-6.78,4.46-7.03,9.59-6.7,11.82
			c0,0,3.03-1.63,4.6-1.79c1.57-0.17,5.65,0.74,8.63-0.55C230.6,205.59,235.46,199.97,236.11,194.42z"/>
		<path class="st1" d="M217.88,204.8c-0.09,0.13,0,0.3,0.16,0.3h6.06c0,0,3.05,0.06,5.07-1.91c1.98-1.92,4.1-3.95,4.73-6.8
			c0.03-0.13-0.06-0.26-0.2-0.25C232.01,196.27,223.12,197.3,217.88,204.8z"/>
	</g>
	<path class="st7" d="M196.26,214.88c0.69,0.28,2.14,1.21,3.18,1.32c1.04,0.11,4.33,0.66,9.07,0.66c4.74,0,8.03-0.55,9.07-0.66
		c1.04-0.11,2.48-1.05,3.18-1.32c0.27-0.11,0.6-0.45,0.91-0.83c-15.61,2.42-26.31,0-26.32,0
		C195.65,214.43,195.99,214.78,196.26,214.88z"/>
	<path d="M309.38,252.29l-0.74-6.97l-0.62-0.48c-1.4-1.07-2.8-2.15-4.2-3.21c0.33,0.06,0.68,0.12,1.06,0.19l2.25,0.4l-0.1-2.28
		c-0.17-4.01-0.33-7.95-0.49-11.83l-0.06-1.57l-1.57-0.17c-3.03-0.33-6.1-0.64-9.12-0.94c-1.94-0.19-3.63,0.04-5.02,0.67
		c-1.47,0.67-2.57,1.69-3.28,3.04c-0.56,1.07-0.84,2.27-0.84,3.57c-0.64-0.78-1.42-1.45-2.34-2c-1.22-0.73-2.66-1.17-4.27-1.3
		c-3.05-0.25-4.55-0.36-7.63-0.59l-0.72-0.05l0,0l-0.97-0.07l-0.41-0.03l0,0l-0.21-0.01c-4.31-0.29-8.69-0.57-13.02-0.81l0,0
		l-0.37-0.02l-1.87-0.11l0,0.01c-3.84-0.2-7.81-0.39-12.07-0.55l0,0l-1.41-0.05l-1.68-0.06l0,0c-2.13-0.08-3.55-0.12-6.05-0.19
		c-1.62-0.04-3.04,0.25-4.24,0.88c-0.98,0.52-1.78,1.21-2.4,2.05l-0.06-3.09l-1.76-0.03c-2.07-0.04-3.11-0.06-5.18-0.08l-1.87-0.02
		l0.27,21.43c-0.35-0.03-0.59-0.06-0.74-0.1c-0.04-0.18-0.09-0.51-0.1-1.05l-0.16-20.29l-1.8-0.01c-2.07-0.02-3.1-0.02-5.17-0.02
		l-1.84,0l0.01,3.65c-0.66-1.12-1.6-2.02-2.81-2.67c-1.2-0.65-2.61-0.97-4.23-0.95c-2.83,0.02-5.7,0.06-8.53,0.11l-1.76,0.03
		l-0.05,3.13c-0.62-0.86-1.43-1.56-2.43-2.09c-1.2-0.63-2.62-0.92-4.24-0.88c-2.72,0.07-5.49,0.16-8.25,0.27l-0.57,0.02l0,0
		l-0.91,0.04l-0.21,0.01v0l-0.85,0.03c-2.08,0.08-3.12,0.13-5.2,0.22l-1.67,0.08l-0.95,21.51c-0.36,0-0.61-0.01-0.78-0.03
		c-0.02-0.19-0.03-0.46-0.01-0.87l1.01-20.58l-2.02,0.1c-2.08,0.11-3.13,0.16-5.21,0.28l-1.63,0.09l-0.17,3.2
		c-0.45-0.75-1.05-1.39-1.81-1.93c-1.34-0.95-3.07-1.35-5.14-1.21c-0.71,0.05-1.06,0.07-1.77,0.12c-1.6,0.11-3.03,0.53-4.25,1.25
		c-1.23,0.73-2.21,1.67-2.92,2.81c-0.71,1.15-1.13,2.41-1.23,3.77l-0.65,8.83c-1.62,0.26-2.48,0.39-4.15,0.66l-0.01,0l1.31-16.04
		l-2.15,0.18c-2.11,0.18-3.16,0.27-5.27,0.46l-0.1,0.01l0.5-5.58l-2.19,0.21c-4.92,0.46-9.92,0.96-14.84,1.49l-1.47,0.16
		l-2.74,25.86c-0.18,1.73,0.05,3.31,0.7,4.7c0.69,1.47,1.8,2.6,3.3,3.35c1.11,0.56,2.42,0.84,3.89,0.84c0.44,0,0.89-0.02,1.36-0.08
		c2.94-0.31,4.37-0.46,7.28-0.75l1.22-0.12l1.12-0.11c4.22-0.4,8.49-0.78,12.68-1.12l1.66-0.13l0.02-1.39
		c0.3,0.23,0.62,0.44,0.97,0.62c1.04,0.55,2.25,0.83,3.63,0.83c0.26,0,0.52-0.01,0.79-0.03c0.73-0.05,1.09-0.08,1.81-0.13
		c1.67-0.12,3.15-0.58,4.39-1.37c1.23-0.78,2.22-1.8,2.94-3.02c0.25-0.44,0.47-0.89,0.64-1.35c0.07,0.19,0.15,0.37,0.24,0.55
		c0.62,1.25,1.58,2.23,2.84,2.92c1.09,0.59,2.37,0.89,3.82,0.89c0.19,0,0.38-0.01,0.58-0.02c2.93-0.16,5.88-0.3,8.78-0.42l1.35-0.06
		l1.27-0.05c2.79-0.11,5.64-0.21,8.45-0.29c1.66-0.05,3.13-0.45,4.36-1.2c1.02-0.62,1.85-1.4,2.49-2.34l-0.06,3.37l1.9-0.04
		c2.89-0.06,5.83-0.1,8.74-0.12c1.66-0.01,3.13-0.39,4.36-1.12c1.24-0.73,2.21-1.73,2.87-2.96c0.19-0.36,0.36-0.73,0.49-1.11
		c0.14,0.38,0.3,0.75,0.49,1.11c0.66,1.23,1.62,2.23,2.87,2.97c1.23,0.73,2.7,1.11,4.36,1.13c2.89,0.03,5.83,0.07,8.74,0.13
		l1.9,0.04l0-0.02l0.38,0.01c3.11,0.07,4.63,0.11,7.72,0.21c0.12,0,0.23,0.01,0.35,0.01c1.53,0,2.89-0.33,4.02-0.97
		c1.24-0.7,2.19-1.69,2.83-2.92c0.62-1.19,0.9-2.53,0.85-3.97l-0.21-5.9l-0.7-0.52c-0.8-0.6-1.59-1.19-2.39-1.79
		c0.03,0,0.05,0.01,0.08,0.01l1.97,0.22l0.06-1.98c0.03-1.25,0.07-2.49,0.1-3.73c0.69-0.05,1.25-0.1,1.85-0.14l0.91,22.08l1.67,0.08
		c2.14,0.1,3.21,0.15,5.35,0.26l2.02,0.1l-0.66-14.03l0.2,0.42c0.83,1.75,1.27,2.68,2.05,4.36l0.5,9.37l1.64,0.09
		c2.14,0.12,3.21,0.18,5.34,0.31c3.31,0.21,4.92,0.33,8.21,0.57l0.79,0.06l0,0.02l1.57,0.12c2.16,0.17,3.24,0.25,5.4,0.43l2.14,0.18
		l-0.09-1.12c0.01,0.02,0.01,0.03,0.01,0.05l0.37,1.15l1.21,0.11c2.24,0.2,3.36,0.3,5.61,0.51l2.78,0.26l-0.03-0.08
		c2.92,0.28,5.86,0.58,8.78,0.89c0.47,0.05,0.92,0.07,1.36,0.07c1.47,0,2.76-0.28,3.87-0.84c1.49-0.75,2.59-1.87,3.28-3.33
		C309.32,255.59,309.56,254.01,309.38,252.29z M183.65,235.44l-0.3,11.75c-0.01,0.53-0.07,0.85-0.11,1.02
		c-0.1,0.02-0.23,0.05-0.42,0.07l0.4-13.55c0.17,0.01,0.3,0.02,0.4,0.03C183.64,234.92,183.65,235.14,183.65,235.44z M148.98,238.2
		l-0.59,9.37c-0.07,1.12-0.15,1.99-0.24,2.59c-0.02,0.13-0.04,0.23-0.06,0.3c-0.03,0-0.05,0.01-0.09,0.01
		c-0.01-0.58,0.02-1.38,0.09-2.39l0.63-9.38c0.07-1.05,0.15-1.87,0.24-2.43c0.01-0.09,0.03-0.16,0.04-0.21c0.01,0,0.03,0,0.04-0.01
		C149.06,236.58,149.03,237.3,148.98,238.2z M124.93,250.99c-1.33,0.13-2,0.2-3.33,0.33l-0.06,0.01c-0.4,0.05-0.77,0.1-1.12,0.14
		c-0.9,0.09-1.44,0.09-1.75,0.07c-0.02-0.25-0.03-0.65,0.03-1.29l1.63-16.43c2.25-0.07,4.5-0.14,6.72-0.19l0.22-0.01l-1.51,17.28
		L124.93,250.99z M299.51,251.7c-0.22-0.01-0.48-0.02-0.8-0.06c-0.25-0.03-0.52-0.06-0.81-0.11c-0.08-0.01-0.16-0.02-0.25-0.03
		c-0.22-1.08-0.4-1.95-0.61-2.99c0.81,0.63,1.62,1.26,2.42,1.9C299.5,251.01,299.51,251.42,299.51,251.7z M297.91,237.15
		c-0.46-0.35-0.92-0.7-1.38-1.04c0-0.05-0.01-0.1-0.01-0.16l-0.06-0.83c-0.01-0.2-0.02-0.38-0.03-0.53l0-0.1c0-0.09,0-0.18,0-0.25
		c0.27-0.01,0.66,0,1.2,0.05L297.91,237.15z M289.15,244.5l-0.19-2.25c1.21,0.94,2.43,1.88,3.66,2.83c-0.8-0.14-1.6-0.27-2.66-0.45
		L289.15,244.5z M280.36,241.93c-0.05,0.05-0.11,0.09-0.16,0.14l-0.36-4.73c0.02,0.01,0.03,0.01,0.04,0.01
		c0.02,0.06,0.05,0.17,0.08,0.34c0.08,0.54,0.16,1.32,0.25,2.33L280.36,241.93z M287.88,247.19l0.29,3.27
		c-0.3-0.91-0.61-1.82-0.91-2.73C287.48,247.55,287.68,247.37,287.88,247.19z M234.53,236.22c-0.12-0.09-0.24-0.17-0.36-0.26v-0.57
		c0-0.18,0.01-0.34,0.01-0.47l0-0.04c0-0.05,0-0.09,0.01-0.13c0.08-0.01,0.18-0.01,0.3-0.02L234.53,236.22z M235.03,248.32
		c-0.14,0-0.31,0-0.5,0c-0.12,0-0.24-0.01-0.36-0.02c-0.07-0.53-0.14-1.01-0.21-1.52c0.37,0.28,0.73,0.56,1.09,0.84
		C235.05,247.92,235.04,248.15,235.03,248.32z M268.45,250.06c-1.15-0.01-2.2-0.01-3.46-0.02l-0.03-0.43
		C266.2,249.76,267.25,249.9,268.45,250.06z M201.08,245.63c-0.01,0.87-0.04,1.57-0.08,2.08c-0.01,0.07-0.01,0.12-0.02,0.17
		c-0.32,0.03-0.7,0.06-1.14,0.07l0.02-1.44C200.24,246.24,200.64,245.95,201.08,245.63z M199.98,235.95l0.02-1.58
		c0.54,0.01,0.89,0.04,1.1,0.07c0.01,0.1,0.02,0.23,0.03,0.41l0,0.18C200.74,235.35,200.35,235.66,199.98,235.95z M208.62,239.64
		l0,0.36c-0.07-0.06-0.13-0.12-0.19-0.18C208.5,239.76,208.56,239.7,208.62,239.64z M227.21,241.68c0.69,0.52,1.38,1.03,2.07,1.55
		c-0.42-0.04-0.87-0.08-1.4-0.14l-0.64-0.06L227.21,241.68z M253.56,241.08l-0.27-5.69c0.59,0.09,1.18,0.18,1.96,0.3l0.29,5.49
		L253.56,241.08z M271.02,242.16c-2.69-0.19-4.24-0.3-6.52-0.45l-0.34-5.84c1.97,0.24,3.46,0.43,5.88,0.74l0.84,0.11l0.38,5.46
		L271.02,242.16z"/>
	<g>
		<linearGradient id="SVGID_1_" gradientUnits="userSpaceOnUse" x1="118.7384" y1="266.5394" x2="118.7384" y2="225.643">
			<stop  offset="0" style="stop-color:#F8E701"/>
			<stop  offset="1" style="stop-color:#EBA924"/>
		</linearGradient>
		<path class="st10" d="M118.69,232.05c-0.01,0-0.01,0-0.02,0c-0.58,5.85-1.17,11.85-1.78,18.02c-0.17,1.71,0.04,2.73,0.62,3.05
			c0.49,0.27,1.53,0.32,3.1,0.16c0.36-0.04,0.76-0.08,1.18-0.14c1.33-0.13,2-0.2,3.33-0.33c-0.2,2.27-0.31,3.41-0.51,5.71
			c-2.91,0.29-4.37,0.44-7.29,0.75c-1.69,0.18-3.1-0.01-4.24-0.58c-1.13-0.57-1.95-1.4-2.46-2.49c-0.51-1.09-0.69-2.34-0.54-3.73
			c0.89-8.42,1.76-16.55,2.59-24.39c4.95-0.53,9.89-1.02,14.82-1.48c-0.19,2.07-0.28,3.11-0.47,5.22
			C124.23,231.87,121.46,231.95,118.69,232.05z"/>
		<linearGradient id="SVGID_2_" gradientUnits="userSpaceOnUse" x1="133.369" y1="266.5394" x2="133.369" y2="225.643">
			<stop  offset="0" style="stop-color:#F8E701"/>
			<stop  offset="1" style="stop-color:#EBA924"/>
		</linearGradient>
		<path class="st11" d="M139.79,246.64c-0.05,3.46-0.09,6.97-0.14,10.53c-4.23,0.34-8.46,0.72-12.7,1.13
			c0.8-9.12,1.56-17.89,2.3-26.34c2.11-0.19,3.16-0.28,5.26-0.46c-0.58,7.11-1.18,14.46-1.8,22.04c0.01,0,0.02,0,0.04,0
			c0.94-0.15,1.41-0.23,2.35-0.38c0.16-2.35,0.25-3.52,0.41-5.83C137.22,247.05,138.08,246.91,139.79,246.64z"/>
		<linearGradient id="SVGID_3_" gradientUnits="userSpaceOnUse" x1="148.4736" y1="266.5394" x2="148.4736" y2="225.643">
			<stop  offset="0" style="stop-color:#F8E701"/>
			<stop  offset="1" style="stop-color:#EBA924"/>
		</linearGradient>
		<path class="st12" d="M156.13,233.65c0.04,0.16,0.07,0.39,0.09,0.69c0.02,0.3,0.03,0.54,0.02,0.73
			c-0.28,4.97-0.58,10.04-0.87,15.23c-0.07,1.13-0.38,2.18-0.94,3.15c-0.57,0.97-1.35,1.77-2.34,2.4c-0.99,0.63-2.17,0.99-3.54,1.09
			c-0.73,0.05-1.09,0.08-1.82,0.13c-1.36,0.1-2.5-0.1-3.43-0.59c-0.93-0.49-1.61-1.19-2.05-2.09c-0.44-0.9-0.62-1.92-0.53-3.05
			c0.38-5.17,0.75-10.23,1.11-15.17c0.08-1.06,0.4-2.04,0.95-2.93c0.56-0.89,1.32-1.63,2.3-2.2c0.97-0.58,2.12-0.91,3.44-1
			c0.71-0.05,1.06-0.07,1.76-0.12c1.65-0.11,2.97,0.19,3.97,0.89C155.26,231.49,155.88,232.44,156.13,233.65z M150.8,238.31
			c0.07-1.12,0.1-1.98,0.07-2.59c-0.02-0.61-0.16-1.02-0.41-1.25c-0.25-0.22-0.7-0.31-1.33-0.27c-0.63,0.04-1.09,0.2-1.38,0.45
			c-0.29,0.26-0.49,0.7-0.59,1.32c-0.1,0.62-0.19,1.49-0.26,2.61c-0.21,3.08-0.42,6.21-0.63,9.38c-0.08,1.17-0.11,2.08-0.09,2.73
			c0.02,0.65,0.15,1.1,0.41,1.34c0.26,0.24,0.71,0.34,1.37,0.29c0.66-0.05,1.13-0.21,1.42-0.49c0.29-0.28,0.48-0.75,0.58-1.41
			c0.1-0.66,0.18-1.57,0.25-2.74C150.41,244.51,150.61,241.39,150.8,238.31z"/>
		<linearGradient id="SVGID_4_" gradientUnits="userSpaceOnUse" x1="165.8796" y1="266.5394" x2="165.8796" y2="225.643">
			<stop  offset="0" style="stop-color:#F8E701"/>
			<stop  offset="1" style="stop-color:#EBA924"/>
		</linearGradient>
		<path class="st13" d="M168.64,229.26c2.08-0.1,3.11-0.14,5.19-0.22c-0.32,8.37-0.65,17.05-1,26.08c-2.93,0.12-5.86,0.26-8.8,0.42
			c-1.35,0.07-2.49-0.15-3.42-0.66c-0.93-0.51-1.62-1.22-2.08-2.13c-0.45-0.91-0.65-1.93-0.59-3.06c0.37-6.84,0.74-13.48,1.09-19.93
			c2.08-0.12,3.12-0.18,5.2-0.28c-0.29,6.02-0.6,12.21-0.91,18.56c-0.07,1.39,0.15,2.23,0.64,2.51c0.44,0.25,1.33,0.34,2.67,0.28
			c0.25-0.01,0.53-0.03,0.82-0.06c0.1,0,0.15-0.01,0.25-0.01C168.02,243.36,168.34,236.2,168.64,229.26z"/>
		<linearGradient id="SVGID_5_" gradientUnits="userSpaceOnUse" x1="183.0857" y1="266.5394" x2="183.0857" y2="225.643">
			<stop  offset="0" style="stop-color:#F8E701"/>
			<stop  offset="1" style="stop-color:#EBA924"/>
		</linearGradient>
		<path class="st14" d="M190.72,234.18c-0.09,4.63-0.18,9.36-0.28,14.18c-0.02,1.13-0.3,2.16-0.82,3.11
			c-0.53,0.95-1.27,1.72-2.24,2.3c-0.97,0.59-2.12,0.9-3.47,0.94c-2.82,0.08-5.64,0.18-8.47,0.29c0.32-9.02,0.63-17.71,0.93-26.07
			c2.74-0.1,5.49-0.19,8.23-0.27c1.31-0.04,2.42,0.19,3.34,0.67c0.92,0.48,1.62,1.15,2.09,1.99
			C190.51,232.18,190.74,233.13,190.72,234.18z M180.93,250.2c0.34,0,0.64,0,0.92-0.01c1.25-0.04,2.09-0.2,2.52-0.47
			c0.5-0.32,0.77-1.14,0.8-2.48c0.1-3.98,0.2-7.9,0.3-11.75c0.03-1.26-0.2-2.02-0.67-2.29c-0.41-0.23-1.23-0.33-2.46-0.3
			c-0.27,0.01-0.57,0.02-0.91,0.05C181.28,238.56,181.11,244.3,180.93,250.2z"/>
		<linearGradient id="SVGID_6_" gradientUnits="userSpaceOnUse" x1="200.2118" y1="266.5394" x2="200.2118" y2="225.643">
			<stop  offset="0" style="stop-color:#F8E701"/>
			<stop  offset="1" style="stop-color:#EBA924"/>
		</linearGradient>
		<path class="st15" d="M201.58,228.36c1.3-0.01,2.42,0.23,3.34,0.73c0.93,0.5,1.64,1.18,2.13,2.03c0.49,0.86,0.74,1.81,0.74,2.87
			c0,1.56,0,2.34,0,3.92c-0.64,0.61-1.36,1.24-2.16,1.89c0.8,0.66,1.51,1.3,2.16,1.92c0,2.56,0,3.84-0.01,6.44
			c0,1.13-0.25,2.16-0.76,3.09c-0.51,0.94-1.24,1.69-2.19,2.26c-0.96,0.57-2.11,0.86-3.45,0.87c-2.92,0.02-5.84,0.06-8.76,0.12
			c0.15-9.01,0.3-17.68,0.44-26.03C195.91,228.42,198.75,228.38,201.58,228.36z M198.19,232.58c-0.03,2.79-0.05,4.19-0.08,7.03
			c1.47-1.01,3.09-2.26,4.86-3.73c0-0.09,0-0.14,0-0.23c-0.01-0.33-0.01-0.5-0.01-0.83c-0.02-1.1-0.3-1.77-0.84-2
			c-0.45-0.19-1.27-0.29-2.48-0.27c-0.24,0-0.49,0.01-0.76,0.03C198.6,232.58,198.46,232.58,198.19,232.58z M202.92,243.83
			c-0.38-0.33-0.77-0.65-1.16-0.96c-1.42,1.05-2.66,1.95-3.72,2.71c-0.02,1.69-0.03,2.53-0.05,4.24c0.52-0.01,0.78-0.01,1.3-0.02
			c0.76-0.01,1.39-0.04,1.9-0.09c0.51-0.05,0.9-0.22,1.16-0.49c0.26-0.27,0.42-0.72,0.47-1.34c0.05-0.62,0.08-1.49,0.09-2.6
			C202.91,244.69,202.91,244.4,202.92,243.83z"/>
		<linearGradient id="SVGID_7_" gradientUnits="userSpaceOnUse" x1="218.0212" y1="266.5394" x2="218.0212" y2="225.643">
			<stop  offset="0" style="stop-color:#F8E701"/>
			<stop  offset="1" style="stop-color:#EBA924"/>
		</linearGradient>
		<path class="st16" d="M219.97,228.4c2.07,0.03,3.1,0.04,5.16,0.08c0.15,8.35,0.31,17.02,0.48,26.03c-2.92-0.06-5.84-0.1-8.76-0.13
			c-1.34-0.01-2.49-0.3-3.45-0.87c-0.96-0.57-1.69-1.32-2.19-2.26c-0.5-0.94-0.75-1.97-0.76-3.09c-0.01-6.81-0.03-13.41-0.04-19.83
			c2.06,0,3.1,0.01,5.16,0.03c0.05,6,0.1,12.16,0.14,18.49c0.01,1.38,0.27,2.24,0.78,2.55c0.46,0.28,1.35,0.43,2.67,0.44
			c0.25,0,0.52,0,0.81-0.01c0.1,0,0.15,0,0.25,0C220.15,242.46,220.06,235.32,219.97,228.4z"/>
		<linearGradient id="SVGID_8_" gradientUnits="userSpaceOnUse" x1="234.6454" y1="266.5394" x2="234.6454" y2="225.643">
			<stop  offset="0" style="stop-color:#F8E701"/>
			<stop  offset="1" style="stop-color:#EBA924"/>
		</linearGradient>
		<path class="st17" d="M240.61,238.7c-1.68-0.18-2.51-0.27-4.19-0.45c-0.07-2.13-0.1-3.19-0.16-5.29c-0.04,0-0.06,0-0.11,0
			c-0.28-0.02-0.54-0.03-0.78-0.04c-1.11-0.03-1.89,0.04-2.33,0.21c-0.44,0.17-0.65,0.76-0.68,1.7c0,0.15-0.01,0.34-0.01,0.56
			c0,0.22,0,0.45,0,0.68c0,0.23,0,0.42,0.01,0.58c0,0.1,0,0.15,0.01,0.25c3.07,2.24,6.16,4.53,9.27,6.86c0.07,2,0.11,3,0.18,5.03
			c0.04,1.13-0.18,2.15-0.65,3.07c-0.48,0.92-1.18,1.64-2.11,2.17c-0.93,0.53-2.07,0.77-3.42,0.73c-3.09-0.1-4.64-0.14-7.73-0.21
			c-0.07-3.25-0.13-6.46-0.2-9.63c1.68,0.16,2.53,0.25,4.21,0.42c0.26,1.88,0.39,2.82,0.64,4.72c0.45,0.01,0.85,0.03,1.21,0.05
			c0.25,0.02,0.49,0.03,0.71,0.04c0.58,0.02,1.07-0.01,1.46-0.08c0.4-0.07,0.66-0.33,0.79-0.78c0.13-0.45,0.18-1.2,0.15-2.25
			c0-0.13-0.01-0.2-0.01-0.33c-3.11-2.39-6.19-4.73-9.27-7.02c-0.05-2.21-0.07-3.31-0.11-5.49c-0.02-1.05,0.2-2,0.67-2.85
			c0.47-0.84,1.16-1.51,2.08-1.99c0.92-0.48,2.03-0.71,3.33-0.67c2.92,0.08,4.39,0.13,7.31,0.24
			C240.79,232.13,240.7,235.39,240.61,238.7z"/>
		<linearGradient id="SVGID_9_" gradientUnits="userSpaceOnUse" x1="248.5632" y1="266.5394" x2="248.5632" y2="225.643">
			<stop  offset="0" style="stop-color:#F8E701"/>
			<stop  offset="1" style="stop-color:#EBA924"/>
		</linearGradient>
		<path class="st18" d="M255.33,229.57c0.09,1.72,0.13,2.58,0.22,4.31c-1.68-0.26-2.51-0.39-4.19-0.64
			c0.34,7.17,0.69,14.57,1.05,22.22c-2.14-0.11-3.22-0.16-5.36-0.26c-0.32-7.67-0.62-15.1-0.92-22.29c-1.76,0.13-2.64,0.19-4.4,0.33
			c-0.06-1.73-0.09-2.59-0.16-4.3C246.15,229.12,250.74,229.33,255.33,229.57z"/>
		<linearGradient id="SVGID_10_" gradientUnits="userSpaceOnUse" x1="263.6357" y1="266.5394" x2="263.6357" y2="225.643">
			<stop  offset="0" style="stop-color:#F8E701"/>
			<stop  offset="1" style="stop-color:#EBA924"/>
		</linearGradient>
		<path class="st19" d="M270.27,234.8c-3.23-0.42-4.84-0.62-8.06-1.01c0.19,3.17,0.38,6.38,0.57,9.64c3.24,0.2,4.87,0.31,8.12,0.55
			c0.12,1.83,0.19,2.74,0.31,4.59c-3.28-0.44-4.92-0.65-8.19-1.06c0.1,1.73,0.15,2.6,0.26,4.34c3.26,0,4.89,0.01,8.16,0.05
			c0.13,1.89,0.19,2.84,0.32,4.75c-3.3-0.24-4.94-0.36-8.23-0.57c-2.14-0.13-3.21-0.19-5.36-0.31c-0.17-3.27-0.26-4.88-0.43-8.08
			c-0.88-1.89-1.33-2.83-2.21-4.69c0.79,0.04,1.18,0.06,1.96,0.11c-0.24-4.58-0.48-9.07-0.72-13.47c4.39,0.25,8.79,0.53,13.2,0.83
			C270.09,232.2,270.15,233.06,270.27,234.8z"/>
		<linearGradient id="SVGID_11_" gradientUnits="userSpaceOnUse" x1="280.5371" y1="266.5394" x2="280.5371" y2="225.643">
			<stop  offset="0" style="stop-color:#F8E701"/>
			<stop  offset="1" style="stop-color:#EBA924"/>
		</linearGradient>
		<path class="st20" d="M283.18,257.67c-0.96-2.97-1.44-4.45-2.39-7.37c-0.6,0.42-1.17,0.81-1.71,1.17
			c0.18,2.31,0.26,3.48,0.44,5.83c-2.17-0.18-3.25-0.27-5.41-0.43c-0.64-9.08-1.25-17.81-1.84-26.22c3.04,0.22,4.57,0.34,7.62,0.59
			c1.34,0.11,2.5,0.46,3.48,1.05c0.98,0.59,1.76,1.34,2.34,2.25c0.58,0.91,0.91,1.9,1.01,2.97c0.26,3.05,0.39,4.58,0.66,7.69
			c-0.66,0.62-1.41,1.26-2.25,1.93c1.21,3.63,2.44,7.32,3.67,11.06C286.55,257.96,285.43,257.86,283.18,257.67z M277.85,235.27
			c0.25,3.35,0.51,6.74,0.78,10.19c1.24-0.72,2.45-1.65,3.63-2.79c-0.09-1.12-0.13-1.68-0.22-2.79c-0.08-1.05-0.17-1.87-0.26-2.46
			c-0.09-0.58-0.26-1.02-0.52-1.3c-0.26-0.28-0.66-0.49-1.18-0.6c-0.44-0.09-1.04-0.15-1.77-0.21
			C278.12,235.29,278.03,235.28,277.85,235.27z"/>
		<linearGradient id="SVGID_12_" gradientUnits="userSpaceOnUse" x1="298.0412" y1="266.5394" x2="298.0412" y2="225.643">
			<stop  offset="0" style="stop-color:#F8E701"/>
			<stop  offset="1" style="stop-color:#EBA924"/>
		</linearGradient>
		<path class="st21" d="M305.19,240.02c-2.1-0.38-3.16-0.56-5.25-0.93c-0.26-2.6-0.39-3.89-0.64-6.44
			c-0.05-0.01-0.08-0.01-0.13-0.01c-0.35-0.05-0.68-0.09-0.97-0.12c-1.38-0.14-2.34-0.12-2.88,0.05c-0.54,0.17-0.75,0.87-0.71,2
			c0.01,0.18,0.01,0.41,0.03,0.68c0.02,0.27,0.04,0.55,0.06,0.83c0.02,0.28,0.04,0.51,0.06,0.7c0.01,0.12,0.02,0.18,0.03,0.3
			c4,3.01,8.04,6.08,12.12,9.21c0.26,2.46,0.39,3.69,0.66,6.19c0.15,1.39-0.03,2.63-0.55,3.72c-0.52,1.09-1.33,1.92-2.45,2.48
			c-1.12,0.57-2.52,0.76-4.21,0.58c-3.23-0.35-6.45-0.67-9.66-0.98c-0.35-4.01-0.7-7.96-1.04-11.84c2.1,0.35,3.16,0.53,5.27,0.89
			c0.48,2.32,0.71,3.49,1.19,5.85c0.56,0.06,1.06,0.11,1.51,0.18c0.32,0.05,0.61,0.09,0.88,0.11c0.72,0.08,1.33,0.09,1.81,0.04
			c0.49-0.05,0.79-0.34,0.92-0.89c0.12-0.54,0.12-1.46-0.01-2.75c-0.02-0.16-0.02-0.25-0.04-0.41c-4.08-3.2-8.11-6.34-12.1-9.42
			c-0.24-2.69-0.35-4.02-0.59-6.67c-0.11-1.28,0.09-2.41,0.6-3.39c0.51-0.98,1.32-1.72,2.42-2.22c1.1-0.5,2.46-0.67,4.08-0.51
			c3.03,0.3,6.06,0.61,9.1,0.94C304.86,232.06,305.02,236,305.19,240.02z"/>
	</g>
	<g>
		<linearGradient id="SVGID_13_" gradientUnits="userSpaceOnUse" x1="118.2925" y1="220.5473" x2="119.2359" y2="260.0126">
			<stop  offset="0" style="stop-color:#F8E701"/>
			<stop  offset="1" style="stop-color:#EBA924"/>
		</linearGradient>
		<path class="st22" d="M121.74,252.84c-0.42,0.06-0.81,0.1-1.17,0.14c-1.88,0.19-2.63,0.04-2.93-0.13
			c-0.26-0.14-0.67-0.69-0.46-2.76l1.76-17.75c2.7-0.09,5.41-0.17,8.06-0.23l0.27-0.01l0.53-5.85l-0.36,0.03
			c-4.92,0.46-9.9,0.96-14.82,1.48l-0.24,0.03l-2.61,24.64c-0.15,1.45,0.04,2.76,0.57,3.9c0.54,1.15,1.41,2.04,2.6,2.64
			c0.9,0.45,1.97,0.68,3.2,0.68c0.39,0,0.79-0.02,1.2-0.07c2.95-0.31,4.38-0.46,7.29-0.75l0.25-0.02l0.57-6.33l-0.37,0.04
			C123.75,252.64,123.09,252.7,121.74,252.84z M124.32,258.24c-2.75,0.27-4.18,0.42-7.05,0.72c-1.63,0.17-2.99-0.01-4.07-0.55
			c-1.06-0.53-1.85-1.32-2.32-2.35c-0.48-1.04-0.66-2.24-0.51-3.57l2.56-24.15c4.71-0.5,9.49-0.98,14.2-1.42l-0.41,4.58
			c-2.65,0.06-5.35,0.14-8.04,0.24l-0.29,0.03l-1.81,18.27c-0.18,1.87,0.07,2.96,0.78,3.35c0.55,0.3,1.63,0.37,3.28,0.2
			c0.37-0.04,0.77-0.09,1.18-0.14c1.2-0.12,1.86-0.19,2.96-0.29L124.32,258.24z"/>
		<linearGradient id="SVGID_14_" gradientUnits="userSpaceOnUse" x1="132.585" y1="220.2057" x2="133.5284" y2="259.6709">
			<stop  offset="0" style="stop-color:#F8E701"/>
			<stop  offset="1" style="stop-color:#EBA924"/>
		</linearGradient>
		<path class="st23" d="M135.45,247.03l-0.24,0.04l-0.41,5.83c-0.68,0.11-1.12,0.18-1.76,0.28l1.8-22.02l-0.36,0.03
			c-2.1,0.18-3.16,0.27-5.27,0.46l-0.25,0.02l-2.35,26.96l0.36-0.04c4.23-0.41,8.5-0.78,12.7-1.12l0.28-0.02l0-0.28
			c0.05-3.56,0.1-7.07,0.14-10.53l0-0.36l-0.36,0.06C138.03,246.61,137.17,246.75,135.45,247.03z M139.35,256.89
			c-3.99,0.33-8.05,0.68-12.07,1.07l2.25-25.72c1.82-0.17,2.86-0.26,4.65-0.41l-1.8,22.05l0.42-0.04c0.94-0.15,1.41-0.23,2.35-0.38
			l0.24-0.04l0.41-5.83c1.44-0.23,2.28-0.37,3.69-0.59C139.44,250.25,139.39,253.54,139.35,256.89z"/>
		<linearGradient id="SVGID_15_" gradientUnits="userSpaceOnUse" x1="147.9663" y1="219.838" x2="148.9097" y2="259.3033">
			<stop  offset="0" style="stop-color:#F8E701"/>
			<stop  offset="1" style="stop-color:#EBA924"/>
		</linearGradient>
		<path class="st24" d="M150.67,234.24c-0.32-0.28-0.83-0.39-1.55-0.34c-0.71,0.05-1.22,0.22-1.57,0.53
			c-0.35,0.31-0.57,0.8-0.69,1.49c-0.1,0.63-0.19,1.51-0.27,2.63l-0.63,9.38c-0.08,1.18-0.11,2.11-0.09,2.76
			c0.02,0.74,0.19,1.25,0.51,1.55c0.27,0.26,0.69,0.38,1.27,0.38c0.1,0,0.22,0,0.33-0.01c0.74-0.05,1.26-0.24,1.61-0.57
			c0.34-0.33,0.56-0.85,0.67-1.58c0.1-0.66,0.18-1.59,0.26-2.77l0.59-9.37v0c0.07-1.14,0.1-2,0.07-2.62
			C151.16,235.01,150.99,234.53,150.67,234.24z M150.5,238.29l-0.59,9.37c-0.07,1.16-0.16,2.07-0.25,2.72
			c-0.09,0.59-0.25,1-0.49,1.23c-0.24,0.23-0.65,0.36-1.23,0.4c-0.56,0.04-0.95-0.03-1.14-0.21c-0.13-0.12-0.29-0.42-0.31-1.12
			c-0.02-0.63,0.01-1.54,0.09-2.7l0.63-9.38c0.07-1.1,0.16-1.97,0.26-2.58c0.09-0.54,0.25-0.93,0.49-1.14
			c0.24-0.21,0.64-0.34,1.2-0.38c0.1-0.01,0.19-0.01,0.27-0.01c0.49,0,0.72,0.11,0.83,0.2c0.18,0.16,0.29,0.52,0.31,1.03
			C150.59,236.32,150.57,237.19,150.5,238.29z"/>
		<linearGradient id="SVGID_16_" gradientUnits="userSpaceOnUse" x1="147.9108" y1="219.8393" x2="148.8542" y2="259.3046">
			<stop  offset="0" style="stop-color:#F8E701"/>
			<stop  offset="1" style="stop-color:#EBA924"/>
		</linearGradient>
		<path class="st25" d="M156.43,233.58c-0.27-1.28-0.94-2.3-2-3.04c-1.05-0.74-2.45-1.05-4.17-0.94c-0.71,0.05-1.06,0.07-1.76,0.12
			c-1.36,0.09-2.56,0.44-3.58,1.04c-1.02,0.6-1.82,1.38-2.4,2.31c-0.58,0.93-0.92,1.97-1,3.07l-1.11,15.17
			c-0.09,1.19,0.1,2.27,0.56,3.21c0.47,0.96,1.2,1.7,2.18,2.23c0.81,0.43,1.79,0.65,2.91,0.65c0.22,0,0.45-0.01,0.68-0.03
			c0.73-0.05,1.09-0.08,1.82-0.13c1.41-0.1,2.65-0.48,3.69-1.14c1.03-0.65,1.85-1.5,2.44-2.5c0.59-1,0.92-2.11,0.99-3.29l0.87-15.23
			c0.01-0.2,0-0.46-0.02-0.77C156.5,234,156.47,233.76,156.43,233.58z M155.94,235.04l-0.87,15.23c-0.06,1.08-0.37,2.09-0.9,3.02
			c-0.54,0.92-1.29,1.7-2.24,2.3c-0.95,0.6-2.09,0.95-3.4,1.05c-0.73,0.05-1.09,0.08-1.82,0.13c-1.3,0.09-2.39-0.09-3.27-0.56
			c-0.87-0.46-1.51-1.12-1.92-1.95c-0.41-0.84-0.58-1.82-0.5-2.9l1.11-15.17c0.07-1,0.38-1.95,0.91-2.79
			c0.53-0.85,1.27-1.55,2.2-2.1c0.93-0.55,2.04-0.87,3.31-0.96c0.71-0.05,1.06-0.07,1.76-0.12c0.21-0.01,0.42-0.02,0.63-0.02
			c1.28,0,2.34,0.29,3.15,0.85c0.94,0.66,1.52,1.54,1.75,2.67l0,0.01c0.03,0.15,0.06,0.36,0.09,0.64
			C155.95,234.64,155.95,234.87,155.94,235.04z"/>
		<linearGradient id="SVGID_17_" gradientUnits="userSpaceOnUse" x1="165.4074" y1="219.4211" x2="166.3508" y2="258.8864">
			<stop  offset="0" style="stop-color:#F8E701"/>
			<stop  offset="1" style="stop-color:#EBA924"/>
		</linearGradient>
		<path class="st26" d="M168.63,228.95l-0.28,0.01l-0.95,21.5c-0.28,0.03-0.55,0.04-0.79,0.06c-1.59,0.08-2.23-0.09-2.5-0.24
			c-0.22-0.12-0.57-0.58-0.48-2.24l0.92-18.9l-0.34,0.02c-2.08,0.11-3.12,0.16-5.2,0.28l-0.27,0.02l-1.1,20.2
			c-0.06,1.18,0.14,2.26,0.62,3.21c0.48,0.96,1.22,1.73,2.2,2.26c0.86,0.47,1.9,0.71,3.09,0.71c0.16,0,0.33,0,0.5-0.01
			c2.94-0.16,5.9-0.3,8.8-0.42l0.28-0.01l1.02-26.69l-0.33,0.01C171.74,228.81,170.71,228.86,168.63,228.95z M172.54,254.82
			c-2.81,0.12-5.68,0.26-8.52,0.41c-1.29,0.07-2.39-0.14-3.26-0.62c-0.87-0.48-1.53-1.15-1.95-2c-0.43-0.86-0.61-1.84-0.55-2.91
			l1.07-19.66c1.79-0.1,2.82-0.16,4.59-0.25l-0.89,18.23c-0.07,1.53,0.18,2.44,0.79,2.79c0.49,0.28,1.42,0.39,2.83,0.32
			c0.26-0.01,0.53-0.03,0.82-0.06l0.53-0.03l0.95-21.5c1.79-0.08,2.81-0.13,4.58-0.2L172.54,254.82z"/>
		<linearGradient id="SVGID_18_" gradientUnits="userSpaceOnUse" x1="182.6289" y1="219.0094" x2="183.5723" y2="258.4747">
			<stop  offset="0" style="stop-color:#F8E701"/>
			<stop  offset="1" style="stop-color:#EBA924"/>
		</linearGradient>
		<path class="st27" d="M184.95,232.94c-0.47-0.26-1.32-0.37-2.62-0.34c-0.28,0.01-0.58,0.02-0.92,0.05l-0.28,0.02l-0.53,17.84
			l0.31,0c0.05,0,0.09,0,0.14,0c0.29,0,0.55,0,0.79-0.01c1.32-0.04,2.19-0.21,2.68-0.52c0.6-0.38,0.91-1.27,0.94-2.72l0.3-11.75
			C185.81,234.11,185.54,233.27,184.95,232.94z M185.17,235.48l-0.3,11.75c-0.04,1.52-0.38,2.05-0.66,2.23
			c-0.26,0.17-0.89,0.38-2.37,0.42c-0.19,0.01-0.38,0.01-0.6,0.01l0.5-16.66c0.22-0.01,0.43-0.02,0.62-0.03
			c1.45-0.05,2.05,0.11,2.3,0.26C185.01,233.67,185.2,234.39,185.17,235.48z"/>
		<linearGradient id="SVGID_19_" gradientUnits="userSpaceOnUse" x1="182.4671" y1="219.0133" x2="183.4105" y2="258.4785">
			<stop  offset="0" style="stop-color:#F8E701"/>
			<stop  offset="1" style="stop-color:#EBA924"/>
		</linearGradient>
		<path class="st28" d="M188.08,229.07c-0.96-0.51-2.13-0.74-3.49-0.71c-2.71,0.07-5.48,0.16-8.23,0.27l-0.28,0.01l-0.94,26.35
			l-0.01,0.33l0.33-0.01c2.8-0.11,5.65-0.21,8.46-0.29c1.39-0.04,2.61-0.37,3.62-0.98c1.01-0.61,1.8-1.42,2.35-2.42
			c0.55-0.99,0.84-2.08,0.86-3.25l0.28-14.18c0.02-1.1-0.22-2.12-0.73-3.01C189.8,230.29,189.05,229.57,188.08,229.07z
			 M190.14,248.36c-0.02,1.07-0.28,2.07-0.78,2.97c-0.5,0.9-1.21,1.64-2.13,2.19c-0.92,0.56-2.03,0.86-3.32,0.9
			c-2.71,0.08-5.45,0.17-8.14,0.28l0.9-25.46c2.66-0.1,5.33-0.19,7.94-0.26c1.25-0.04,2.32,0.18,3.18,0.63
			c0.86,0.45,1.53,1.08,1.97,1.87c0.45,0.8,0.67,1.7,0.65,2.7L190.14,248.36z"/>
		<linearGradient id="SVGID_20_" gradientUnits="userSpaceOnUse" x1="199.7814" y1="218.5994" x2="200.7248" y2="258.0646">
			<stop  offset="0" style="stop-color:#F8E701"/>
			<stop  offset="1" style="stop-color:#EBA924"/>
		</linearGradient>
		<path class="st29" d="M201.95,242.63l-0.18-0.15l-0.19,0.14c-1.48,1.1-2.7,1.98-3.71,2.7l-0.13,0.09l-0.05,4.39l0.01,0.31
			l1.6-0.02c0.77-0.01,1.42-0.04,1.93-0.1c0.58-0.06,1.04-0.26,1.34-0.58c0.31-0.33,0.49-0.83,0.55-1.53
			c0.05-0.63,0.08-1.52,0.09-2.63l0.01-1.58l-0.11-0.09C202.73,243.26,202.33,242.94,201.95,242.63z M202.6,245.26
			c-0.01,1.09-0.04,1.96-0.09,2.58c-0.05,0.55-0.18,0.94-0.38,1.16c-0.21,0.22-0.53,0.35-0.97,0.4c-0.5,0.05-1.13,0.08-1.87,0.09
			l-0.99,0.01l0.04-3.77c0.95-0.67,2.07-1.49,3.41-2.48c0.29,0.23,0.57,0.47,0.86,0.72L202.6,245.26z"/>
		<linearGradient id="SVGID_21_" gradientUnits="userSpaceOnUse" x1="200.075" y1="218.5924" x2="201.0184" y2="258.0576">
			<stop  offset="0" style="stop-color:#F8E701"/>
			<stop  offset="1" style="stop-color:#EBA924"/>
		</linearGradient>
		<path class="st30" d="M202.24,232.54c-0.5-0.21-1.35-0.31-2.6-0.3c-0.24,0-0.5,0.01-0.76,0.03l-0.69,0.01l-0.3,0.03l-0.09,7.89
			l0.48-0.33c1.45-1,3.09-2.26,4.88-3.75l0.11-0.09l0-0.38l-0.01-0.83C203.24,233.59,202.89,232.83,202.24,232.54z M202.66,235.74
			c-1.53,1.27-2.96,2.38-4.24,3.29l0.07-6.14l0.41-0.01c0.27-0.01,0.52-0.02,0.75-0.03c1.43-0.02,2.07,0.13,2.35,0.25
			c0.42,0.18,0.64,0.76,0.65,1.72l0.01,0.82L202.66,235.74z"/>
		<linearGradient id="SVGID_22_" gradientUnits="userSpaceOnUse" x1="199.5933" y1="218.6039" x2="200.5367" y2="258.0692">
			<stop  offset="0" style="stop-color:#F8E701"/>
			<stop  offset="1" style="stop-color:#EBA924"/>
		</linearGradient>
		<path class="st31" d="M205.07,228.82c-0.97-0.52-2.13-0.79-3.49-0.77c-2.82,0.02-5.69,0.06-8.51,0.11l-0.29,0.01l-0.46,26.64
			l0.32-0.01c2.9-0.06,5.84-0.1,8.75-0.12c1.39-0.01,2.6-0.32,3.6-0.91c1-0.59,1.78-1.39,2.31-2.37c0.53-0.98,0.8-2.06,0.8-3.24
			l0.01-6.57L208,241.5c-0.57-0.55-1.2-1.12-1.89-1.69c0.69-0.57,1.33-1.13,1.89-1.67l0.09-0.09l0-4.05c0-1.1-0.26-2.12-0.78-3.02
			C206.8,230.07,206.05,229.35,205.07,228.82z M207.49,237.78c-0.61,0.57-1.3,1.18-2.05,1.79l-0.29,0.23l0.28,0.24
			c0.75,0.62,1.43,1.23,2.05,1.81l-0.01,6.31c0,1.07-0.24,2.06-0.72,2.95c-0.48,0.88-1.18,1.6-2.08,2.14
			c-0.9,0.54-2.01,0.81-3.29,0.82c-2.81,0.02-5.65,0.06-8.44,0.12l0.43-25.42c2.73-0.05,5.49-0.09,8.21-0.11h0
			c1.24-0.02,2.32,0.22,3.2,0.7c0.87,0.47,1.55,1.12,2.01,1.92c0.46,0.81,0.7,1.72,0.7,2.71L207.49,237.78z"/>
		<linearGradient id="SVGID_23_" gradientUnits="userSpaceOnUse" x1="217.3213" y1="218.1801" x2="218.2647" y2="257.6454">
			<stop  offset="0" style="stop-color:#F8E701"/>
			<stop  offset="1" style="stop-color:#EBA924"/>
		</linearGradient>
		<path class="st32" d="M225.14,228.18c-2.07-0.04-3.1-0.06-5.17-0.08l-0.31,0l0.27,21.44c-0.27,0.01-0.52,0.01-0.75,0.01
			c-1.58-0.02-2.24-0.23-2.52-0.4c-0.28-0.17-0.62-0.71-0.63-2.29l-0.15-18.79l-0.3,0c-2.07-0.02-3.1-0.02-5.16-0.02l-0.31,0
			l0.04,20.14c0,1.17,0.27,2.26,0.79,3.24c0.53,0.98,1.3,1.78,2.3,2.38c1,0.59,2.21,0.9,3.6,0.91c2.9,0.03,5.84,0.07,8.75,0.13
			l0.32,0.01l-0.49-26.64L225.14,228.18z M216.86,254.08c-1.28-0.01-2.39-0.29-3.3-0.83c-0.9-0.54-1.6-1.26-2.08-2.14
			c-0.48-0.89-0.72-1.88-0.72-2.95l-0.04-19.53c1.77,0,2.78,0.01,4.55,0.02l0.14,18.19c0.01,1.51,0.31,2.43,0.92,2.81
			c0.5,0.31,1.43,0.47,2.83,0.49c0.26,0,0.53,0,0.81-0.01l0.56,0.01l-0.27-21.44c1.77,0.02,2.78,0.04,4.56,0.07l0.47,25.42
			C222.49,254.15,219.66,254.1,216.86,254.08z"/>
		<linearGradient id="SVGID_24_" gradientUnits="userSpaceOnUse" x1="234.0457" y1="217.7803" x2="234.989" y2="257.2456">
			<stop  offset="0" style="stop-color:#F8E701"/>
			<stop  offset="1" style="stop-color:#EBA924"/>
		</linearGradient>
		<path class="st33" d="M241.93,243.6l-0.12-0.09c-3.05-2.29-6.13-4.57-9.15-6.77l0-0.1c0-0.15-0.01-0.34-0.01-0.57v-0.68
			c0-0.2,0.01-0.37,0.01-0.51l0-0.04c0.02-0.57,0.12-1.28,0.49-1.43c0.28-0.11,0.89-0.23,2.21-0.19c0.18,0.01,0.38,0.02,0.6,0.03
			l0.16,5.28l0.26,0.03c1.67,0.18,2.51,0.27,4.19,0.45l0.33,0.04l0.01-0.33c0.09-3.31,0.18-6.57,0.27-9.78l0.01-0.3l-0.3-0.01
			c-2.91-0.11-4.35-0.15-7.31-0.24c-1.35-0.04-2.52,0.2-3.49,0.7c-0.97,0.51-1.71,1.22-2.21,2.11c-0.5,0.89-0.74,1.9-0.71,3.01
			l0.12,5.64l0.12,0.09c3.03,2.27,6.11,4.6,9.15,6.93l0.01,0.19c0.03,1.01-0.01,1.73-0.14,2.15c-0.13,0.45-0.37,0.54-0.55,0.57
			c-0.37,0.07-0.84,0.09-1.4,0.07c-0.21-0.01-0.45-0.02-0.69-0.04c-0.26-0.02-0.57-0.03-0.97-0.05c-0.24-1.73-0.36-2.67-0.61-4.46
			l-0.03-0.24l-0.24-0.02c-1.69-0.17-2.53-0.25-4.21-0.42l-0.34-0.03l0.21,10.26l0.29,0.01c3.12,0.07,4.63,0.11,7.73,0.21
			c0.1,0,0.2,0.01,0.3,0.01c1.27,0,2.37-0.26,3.27-0.77c0.98-0.56,1.73-1.33,2.23-2.3c0.5-0.96,0.73-2.04,0.68-3.22L241.93,243.6z
			 M240.89,251.71c-0.45,0.86-1.11,1.55-1.99,2.05c-0.88,0.5-1.98,0.73-3.26,0.69c-3-0.1-4.52-0.14-7.44-0.2l-0.19-8.99
			c1.39,0.13,2.21,0.22,3.63,0.36c0.24,1.72,0.36,2.66,0.61,4.48l0.03,0.26l0.26,0.01c0.52,0.01,0.89,0.03,1.2,0.05
			c0.26,0.02,0.5,0.03,0.72,0.04c0.6,0.02,1.11-0.01,1.52-0.08c0.36-0.06,0.82-0.29,1.03-1c0.14-0.49,0.19-1.25,0.16-2.34
			l-0.01-0.48l-0.11-0.09c-3.04-2.34-6.12-4.67-9.15-6.94l-0.11-5.34c-0.02-0.99,0.19-1.9,0.64-2.7c0.44-0.79,1.1-1.42,1.96-1.87
			c0.87-0.46,1.94-0.67,3.18-0.63c2.86,0.08,4.3,0.13,7.01,0.23c-0.09,3.01-0.17,6.06-0.26,9.15c-1.38-0.15-2.2-0.24-3.6-0.39
			l-0.16-5.32l-0.38-0.01c-0.29-0.02-0.55-0.04-0.79-0.04c-1.16-0.04-1.96,0.04-2.45,0.23c-0.55,0.22-0.84,0.86-0.88,1.98l0,0.04
			c0,0.15-0.01,0.33-0.01,0.53v0.68c0,0.23,0,0.43,0.01,0.59l0.01,0.4l0.12,0.09c3.02,2.21,6.1,4.48,9.15,6.77l0.18,4.88
			C241.54,249.87,241.34,250.85,240.89,251.71z"/>
		<linearGradient id="SVGID_25_" gradientUnits="userSpaceOnUse" x1="248.2321" y1="217.4412" x2="249.1755" y2="256.9065">
			<stop  offset="0" style="stop-color:#F8E701"/>
			<stop  offset="1" style="stop-color:#EBA924"/>
		</linearGradient>
		<path class="st34" d="M255.51,234.19l0.37,0.06l-0.26-4.96l-0.27-0.01c-4.35-0.23-8.86-0.44-13.76-0.63l-0.33-0.01l0.18,4.95
			l0.32-0.02c1.65-0.13,2.53-0.19,4.09-0.31l0.92,22.26l0.28,0.01c2.14,0.1,3.21,0.15,5.36,0.26l0.34,0.02l-1.05-22.19
			C253.13,233.82,253.96,233.95,255.51,234.19z M252.09,255.15c-1.84-0.09-2.89-0.15-4.74-0.23l-0.92-22.32l-0.31,0.02
			c-1.65,0.12-2.53,0.18-4.09,0.3l-0.13-3.66c4.68,0.18,8.99,0.38,13.15,0.6l0.19,3.67c-1.44-0.22-2.27-0.35-3.82-0.58l-0.37-0.05
			L252.09,255.15z"/>
		<linearGradient id="SVGID_26_" gradientUnits="userSpaceOnUse" x1="262.7696" y1="217.0937" x2="263.713" y2="256.559">
			<stop  offset="0" style="stop-color:#F8E701"/>
			<stop  offset="1" style="stop-color:#EBA924"/>
		</linearGradient>
		<path class="st35" d="M271.43,251.61c-3.2-0.03-4.8-0.05-7.87-0.05l-0.22-3.69c3.05,0.38,4.66,0.59,7.82,1.01l0.37,0.05
			l-0.35-5.23l-0.26-0.02c-3.18-0.23-4.77-0.34-7.85-0.53l-0.53-9.01c3.02,0.36,4.6,0.56,7.7,0.96l0.37,0.05l-0.34-4.96l-0.27-0.02
			c-4.37-0.3-8.82-0.58-13.21-0.83l-0.34-0.02l0.72,13.47c-0.58-0.03-0.96-0.05-1.62-0.09l-0.51-0.03l0.22,0.46
			c0.87,1.85,1.31,2.78,2.18,4.63l0.44,8.3l0.27,0.01c2.14,0.12,3.21,0.18,5.35,0.31c3.32,0.21,4.93,0.33,8.23,0.57l0.35,0.03
			l-0.37-5.38L271.43,251.61z M263.54,255.79c-2.05-0.12-3.12-0.19-5.08-0.29l-0.42-7.87l-0.03-0.05c-0.81-1.73-1.25-2.66-1.99-4.23
			c0.49,0.03,0.86,0.05,1.45,0.08l0.34,0.02l-0.72-13.47c4.19,0.24,8.42,0.5,12.59,0.79l0.25,3.69c-2.98-0.38-4.56-0.58-7.7-0.96
			l-0.36-0.04l0.61,10.27l0.27,0.02c3.17,0.2,4.76,0.31,7.85,0.53l0.27,3.96c-3.05-0.41-4.65-0.62-7.82-1.01l-0.36-0.05l0.29,5
			l0.29,0c3.17,0,4.77,0.01,7.87,0.05l0.28,4.12C268.35,256.11,266.74,256,263.54,255.79z"/>
		<linearGradient id="SVGID_27_" gradientUnits="userSpaceOnUse" x1="279.9276" y1="216.6836" x2="280.8709" y2="256.1488">
			<stop  offset="0" style="stop-color:#F8E701"/>
			<stop  offset="1" style="stop-color:#EBA924"/>
		</linearGradient>
		<path class="st36" d="M285.49,247.22c0.78-0.62,1.48-1.23,2.1-1.81l0.11-0.1l-0.67-7.84c-0.09-1.11-0.45-2.15-1.05-3.1
			c-0.6-0.94-1.42-1.73-2.44-2.35c-1.02-0.61-2.23-0.98-3.61-1.09c-3.05-0.25-4.54-0.36-7.62-0.59l-0.35-0.03l1.89,26.84l0.26,0.02
			c2.16,0.17,3.24,0.25,5.41,0.43l0.36,0.03l-0.46-6c0.39-0.26,0.81-0.54,1.23-0.84c0.87,2.66,1.35,4.13,2.26,6.97l0.06,0.19
			l0.2,0.02c2.24,0.2,3.37,0.3,5.62,0.51l0.46,0.04l-0.15-0.44C287.89,254.42,286.67,250.77,285.49,247.22z M283.41,257.38
			c-0.92-2.85-1.4-4.32-2.33-7.17l-0.13-0.39l-0.34,0.24c-0.59,0.42-1.16,0.81-1.7,1.16l-0.15,0.1l0.43,5.65
			c-1.85-0.15-2.92-0.24-4.79-0.38l-1.8-25.61c2.85,0.21,4.34,0.32,7.27,0.56c1.28,0.1,2.41,0.44,3.35,1.01
			c0.94,0.56,1.69,1.29,2.24,2.15c0.55,0.87,0.87,1.82,0.96,2.83l0.65,7.54c-0.62,0.58-1.33,1.19-2.12,1.81l-0.17,0.13l0.07,0.2
			c1.16,3.47,2.35,7.04,3.53,10.62C286.48,257.65,285.37,257.55,283.41,257.38z"/>
		<linearGradient id="SVGID_28_" gradientUnits="userSpaceOnUse" x1="279.5142" y1="216.6934" x2="280.4576" y2="256.1587">
			<stop  offset="0" style="stop-color:#F8E701"/>
			<stop  offset="1" style="stop-color:#EBA924"/>
		</linearGradient>
		<path class="st37" d="M282.07,237.37c-0.1-0.65-0.29-1.13-0.59-1.46c-0.3-0.34-0.77-0.58-1.35-0.69c-0.42-0.08-1-0.15-1.8-0.22
			l-0.8-0.06l0.84,11.03l0.42-0.24c1.26-0.72,2.5-1.68,3.69-2.84l0.1-0.1l-0.24-2.93C282.25,238.79,282.16,237.96,282.07,237.37z
			 M278.89,244.94l-0.71-9.34l0.09,0.01c0.78,0.06,1.33,0.13,1.73,0.21c0.45,0.09,0.8,0.26,1.02,0.5c0.21,0.24,0.36,0.62,0.44,1.15
			c0.09,0.58,0.17,1.39,0.26,2.44l0.21,2.64C280.95,243.49,279.93,244.3,278.89,244.94z"/>
		<linearGradient id="SVGID_29_" gradientUnits="userSpaceOnUse" x1="297.401" y1="216.2659" x2="298.3444" y2="255.7311">
			<stop  offset="0" style="stop-color:#F8E701"/>
			<stop  offset="1" style="stop-color:#EBA924"/>
		</linearGradient>
		<path class="st38" d="M307.86,252.45l-0.67-6.32l-0.1-0.08c-4.01-3.08-8.06-6.15-12.02-9.13l-0.02-0.17
			c-0.02-0.19-0.04-0.42-0.05-0.69l-0.06-0.83c-0.02-0.22-0.02-0.42-0.03-0.58l0-0.09c-0.02-0.7,0.04-1.56,0.49-1.7
			c0.34-0.11,1.1-0.2,2.76-0.04c0.26,0.03,0.54,0.06,0.86,0.1l0.64,6.43l0.23,0.04c2.1,0.37,3.15,0.55,5.25,0.93l0.37,0.07
			l-0.02-0.38c-0.17-4.01-0.33-7.96-0.49-11.83l-0.01-0.26l-0.26-0.03c-3.02-0.33-6.09-0.64-9.1-0.94
			c-1.67-0.16-3.09,0.02-4.23,0.54c-1.16,0.53-2.02,1.32-2.56,2.36c-0.54,1.03-0.76,2.23-0.64,3.56l0.6,6.8l0.11,0.08
			c3.96,3.05,8,6.19,12,9.33l0.03,0.28c0.13,1.25,0.13,2.14,0.01,2.65c-0.12,0.54-0.41,0.63-0.65,0.65
			c-0.46,0.05-1.05,0.03-1.75-0.04c-0.27-0.03-0.56-0.07-0.87-0.11c-0.42-0.06-0.9-0.11-1.3-0.16c-0.45-2.21-0.69-3.38-1.15-5.63
			l-0.04-0.2l-0.21-0.04c-2.11-0.36-3.16-0.54-5.27-0.89l-0.39-0.06l1.1,12.48l0.25,0.02c3.2,0.31,6.45,0.63,9.65,0.98
			c0.41,0.04,0.81,0.07,1.2,0.07c1.22,0,2.29-0.23,3.18-0.67c1.18-0.59,2.05-1.47,2.59-2.62
			C307.82,255.19,308.01,253.89,307.86,252.45z M306.74,256.06c-0.48,1.02-1.26,1.81-2.31,2.34c-1.06,0.53-2.42,0.72-4.04,0.55
			c-3.12-0.34-6.29-0.66-9.41-0.96l-0.98-11.19c1.79,0.3,2.83,0.47,4.67,0.79c0.45,2.19,0.69,3.36,1.15,5.64l0.04,0.22l0.22,0.02
			c0.44,0.04,1.01,0.11,1.5,0.18c0.32,0.05,0.62,0.09,0.89,0.12c0.74,0.08,1.37,0.09,1.88,0.04c0.43-0.04,0.99-0.27,1.18-1.13
			c0.13-0.58,0.13-1.51,0-2.84l-0.05-0.54l-0.1-0.08c-4-3.14-8.04-6.28-12-9.34l-0.58-6.53c-0.11-1.21,0.09-2.29,0.57-3.22
			c0.48-0.91,1.24-1.61,2.27-2.09c1.04-0.48,2.36-0.64,3.92-0.49c2.93,0.29,5.9,0.59,8.84,0.91c0.15,3.67,0.3,7.4,0.46,11.19
			c-1.79-0.32-2.83-0.51-4.65-0.82l-0.65-6.46l-0.37-0.04c-0.36-0.05-0.69-0.09-0.99-0.12c-1.43-0.15-2.42-0.13-3,0.06
			c-0.99,0.32-0.94,1.81-0.92,2.3l0,0.09c0.01,0.17,0.01,0.37,0.03,0.6l0.06,0.83c0.02,0.28,0.04,0.52,0.06,0.71l0.04,0.44
			l0.11,0.08c3.96,2.98,8.01,6.05,12.02,9.13l0.65,6.06C307.4,253.84,307.22,255.04,306.74,256.06z"/>
	</g>
</g>
</svg>
